<?xml version="1.0" encoding="utf-8"?><svg xmlns="http://www.w3.org/2000/svg" xmlns:xlink="http://www.w3.org/1999/xlink" width="1366" height="629" preserveAspectRatio="xMidYMid" viewBox="0 0 1366 629" style="z-index:1;margin-right:-2px;display:block;background-color:rgb(153, 204, 255);animation-play-state:paused" ><g transform="translate(683,314.5) scale(1,1) translate(-683,-314.5)" style="transform:matrix(1, 0, 0, 1, 0, 0);animation-play-state:paused" ><defs style="animation-play-state:paused" ><linearGradient id="lg-0.3277922128160462" x1="0" x2="0" y1="0" y2="1" style="animation-play-state:paused" ><stop stop-color="#89bfc3" offset="0" style="animation-play-state:paused" ></stop>

  
<stop stop-color="#e9fffb" offset="1" style="animation-play-state:paused" ></stop></linearGradient></defs>


<rect x="0" y="0" width="1366" height="629" fill="url(#lg-0.3277922128160462)" style="animation-play-state:paused" ></rect>
<circle cx="0" cy="197.86375109497476" r="49.28020742085436" fill="#b2e3d5" transform="matrix(1,0,0,1,0,0)" style="transform:matrix(1, 0, 0, 1, 0, 0);animation-play-state:paused" ></circle>
<circle cx="49.28020742085436" cy="159.06438657055975" r="87.95951664493441" fill="#b2e3d5" transform="matrix(1,0,0,1,-0.005429744720458984,0)" style="transform:matrix(1, 0, 0, 1, -0.00542974, 0);animation-play-state:paused" ></circle>
<circle cx="137.23972406578878" cy="200.38989933095797" r="59.037976412462676" fill="#b2e3d5" transform="matrix(1,0,0,1,-0.022117653861641884,0)" style="transform:matrix(1, 0, 0, 1, -0.0221177, 0);animation-play-state:paused" ></circle>
<circle cx="196.27770047825146" cy="210.32803537640802" r="54.57758265379712" fill="#b2e3d5" transform="matrix(1,0,0,1,-0.05069183558225632,0)" style="transform:matrix(1, 0, 0, 1, -0.0506918, 0);animation-play-state:paused" ></circle>
<circle cx="250.85528313204858" cy="212.14723131430137" r="59.074425411547566" fill="#b2e3d5" transform="matrix(1,0,0,1,-0.09182170033454895,0)" style="transform:matrix(1, 0, 0, 1, -0.0918217, 0);animation-play-state:paused" ></circle>
<circle cx="309.9297085435961" cy="207.08945423702895" r="76.1449507344221" fill="#b2e3d5" transform="matrix(1,0,0,1,-0.14621886610984802,0)" style="transform:matrix(1, 0, 0, 1, -0.146219, 0);animation-play-state:paused" ></circle>
<circle cx="386.0746592780182" cy="214.86141307426885" r="80.77410638056203" fill="#b2e3d5" transform="matrix(1,0,0,1,-0.21463720500469208,0)" style="transform:matrix(1, 0, 0, 1, -0.214637, 0);animation-play-state:paused" ></circle>
<circle cx="466.84876565858025" cy="242.38898845152488" r="38.47352880038677" fill="#b2e3d5" transform="matrix(1,0,0,1,-0.2978716492652893,0)" style="transform:matrix(1, 0, 0, 1, -0.297872, 0);animation-play-state:paused" ></circle>
<circle cx="505.322294458967" cy="235.8921875035811" r="67.61604244398158" fill="#b2e3d5" transform="matrix(1,0,0,1,-0.3967548906803131,0)" style="transform:matrix(1, 0, 0, 1, -0.396755, 0);animation-play-state:paused" ></circle>
<circle cx="572.9383369029485" cy="248.91587038638124" r="41.805811175389636" fill="#b2e3d5" transform="matrix(1,0,0,1,-0.5121519565582275,0)" style="transform:matrix(1, 0, 0, 1, -0.512152, 0);animation-play-state:paused" ></circle>
<circle cx="614.7441480783382" cy="252.38389774457852" r="38.4923996952839" fill="#b2e3d5" transform="matrix(1,0,0,1,-0.6449503302574158,0)" style="transform:matrix(1, 0, 0, 1, -0.64495, 0);animation-play-state:paused" ></circle>
<circle cx="653.2365477736221" cy="254.3282921274934" r="51.091084882753975" fill="#b2e3d5" transform="matrix(1,0,0,1,-0.7960466146469116,0)" style="transform:matrix(1, 0, 0, 1, -0.796047, 0);animation-play-state:paused" ></circle>
<circle cx="704.3276326563761" cy="255.13610766449145" r="49.741356892218995" fill="#b2e3d5" transform="matrix(1,0,0,1,-0.9663257002830505,0)" style="transform:matrix(1, 0, 0, 1, -0.966326, 0);animation-play-state:paused" ></circle>
<circle cx="754.068989548595" cy="250.32367266001256" r="53.4683692819058" fill="#b2e3d5" transform="matrix(1,0,0,1,-1.156632423400879,0)" style="transform:matrix(1, 0, 0, 1, -1.15663, 0);animation-play-state:paused" ></circle>
<circle cx="807.5373588305008" cy="242.79327445712562" r="64.92826487906564" fill="#b2e3d5" transform="matrix(1,0,0,1,-1.3677335977554321,0)" style="transform:matrix(1, 0, 0, 1, -1.36773, 0);animation-play-state:paused" ></circle>
<circle cx="872.4656237095664" cy="226.2145483699081" r="92.48143564548162" fill="#b2e3d5" transform="matrix(1,0,0,1,-1.600266933441162,0)" style="transform:matrix(1, 0, 0, 1, -1.60027, 0);animation-play-state:paused" ></circle>
<circle cx="964.947059355048" cy="240.4672088407222" r="33.37475360213863" fill="#b2e3d5" transform="matrix(1,0,0,1,-1.8546782732009888,0)" style="transform:matrix(1, 0, 0, 1, -1.85468, 0);animation-play-state:paused" ></circle>
<circle cx="998.3218129571867" cy="220.86828200129037" r="65.21898786956999" fill="#b2e3d5" transform="matrix(1,0,0,1,-2.131143569946289,0)" style="transform:matrix(1, 0, 0, 1, -2.13114, 0);animation-play-state:paused" ></circle>
<circle cx="1063.5408008267566" cy="219.84520598964642" r="55.57162388793888" fill="#b2e3d5" transform="matrix(1,0,0,1,-2.4294803142547607,0)" style="transform:matrix(1, 0, 0, 1, -2.42948, 0);animation-play-state:paused" ></circle>
<circle cx="1119.1124247146954" cy="205.36366030734357" r="67.39015372231982" fill="#b2e3d5" transform="matrix(1,0,0,1,-2.749046802520752,0)" style="transform:matrix(1, 0, 0, 1, -2.74905, 0);animation-play-state:paused" ></circle>
<circle cx="1186.5025784370152" cy="200.0662020287057" r="64.35879655787826" fill="#b2e3d5" transform="matrix(1,0,0,1,-3.0886495113372803,0)" style="transform:matrix(1, 0, 0, 1, -3.08865, 0);animation-play-state:paused" ></circle>
<circle cx="1250.8613749948936" cy="181.14982784972938" r="76.02452209265084" fill="#b2e3d5" transform="matrix(1,0,0,1,-3.446460723876953,0)" style="transform:matrix(1, 0, 0, 1, -3.44646, 0);animation-play-state:paused" ></circle>
<circle cx="1326.8858970875444" cy="163.518375389918" r="82.63362330899275" fill="#b2e3d5" transform="matrix(1,0,0,1,-3.819972276687622,0)" style="transform:matrix(1, 0, 0, 1, -3.81997, 0);animation-play-state:paused" ></circle>
<circle cx="0" cy="264.8314468028586" r="45.14046099761784" fill="#bae7e4" transform="matrix(1,0,0,1,0,0)" style="transform:matrix(1, 0, 0, 1, 0, 0);animation-play-state:paused" ></circle>
<circle cx="45.14046099761784" cy="219.37916280933223" r="88.89239145507756" fill="#bae7e4" transform="matrix(1,0,0,1,-0.022117653861641884,0)" style="transform:matrix(1, 0, 0, 1, -0.0221177, 0);animation-play-state:paused" ></circle>
<circle cx="134.0328524526954" cy="232.86904915351715" r="89.30018200387637" fill="#bae7e4" transform="matrix(1,0,0,1,-0.09182170033454895,0)" style="transform:matrix(1, 0, 0, 1, -0.0918217, 0);animation-play-state:paused" ></circle>
<circle cx="223.3330344565718" cy="252.50956254380134" r="82.32947653180364" fill="#bae7e4" transform="matrix(1,0,0,1,-0.21463720500469208,0)" style="transform:matrix(1, 0, 0, 1, -0.214637, 0);animation-play-state:paused" ></circle>
<circle cx="305.6625109883754" cy="269.096814216767" r="75.27274849548576" fill="#bae7e4" transform="matrix(1,0,0,1,-0.3967548906803131,0)" style="transform:matrix(1, 0, 0, 1, -0.396755, 0);animation-play-state:paused" ></circle>
<circle cx="380.93525948386116" cy="294.1184191983425" r="46.88321577049499" fill="#bae7e4" transform="matrix(1,0,0,1,-0.6449503302574158,0)" style="transform:matrix(1, 0, 0, 1, -0.64495, 0);animation-play-state:paused" ></circle>
<circle cx="427.81847525435614" cy="280.0498688573698" r="86.87586740763376" fill="#bae7e4" transform="matrix(1,0,0,1,-0.9663257002830505,0)" style="transform:matrix(1, 0, 0, 1, -0.966326, 0);animation-play-state:paused" ></circle>
<circle cx="514.6943426619899" cy="298.3050292401359" r="69.9850956316952" fill="#bae7e4" transform="matrix(1,0,0,1,-1.3677335977554321,0)" style="transform:matrix(1, 0, 0, 1, -1.36773, 0);animation-play-state:paused" ></circle>
<circle cx="584.6794382936852" cy="309.62818119376567" r="54.25240435954267" fill="#bae7e4" transform="matrix(1,0,0,1,-1.8546782732009888,0)" style="transform:matrix(1, 0, 0, 1, -1.85468, 0);animation-play-state:paused" ></circle>
<circle cx="638.9318426532278" cy="314.3758696888867" r="59.72341468008816" fill="#bae7e4" transform="matrix(1,0,0,1,-2.4294803142547607,0)" style="transform:matrix(1, 0, 0, 1, -2.42948, 0);animation-play-state:paused" ></circle>
<circle cx="698.655257333316" cy="316.98223089945964" r="73.35854586136767" fill="#bae7e4" transform="matrix(1,0,0,1,-3.0886495113372803,0)" style="transform:matrix(1, 0, 0, 1, -3.08865, 0);animation-play-state:paused" ></circle>
<circle cx="772.0138031946836" cy="313.1123724705641" r="37.64631119260033" fill="#bae7e4" transform="matrix(1,0,0,1,-3.819972276687622,0)" style="transform:matrix(1, 0, 0, 1, -3.81997, 0);animation-play-state:paused" ></circle>
<circle cx="809.660114387284" cy="309.6787086950562" r="41.88665332199088" fill="#bae7e4" transform="matrix(1,0,0,1,-4.60075569152832,0)" style="transform:matrix(1, 0, 0, 1, -4.60076, 0);animation-play-state:paused" ></circle>
<circle cx="851.546767709275" cy="297.6539929900484" r="72.08346871091555" fill="#bae7e4" transform="matrix(1,0,0,1,-5.399243354797363,0)" style="transform:matrix(1, 0, 0, 1, -5.39924, 0);animation-play-state:paused" ></circle>
<circle cx="923.6302364201905" cy="299.6461155039168" r="45.77806218189413" fill="#bae7e4" transform="matrix(1,0,0,1,-6.180027961730957,0)" style="transform:matrix(1, 0, 0, 1, -6.18003, 0);animation-play-state:paused" ></circle>
<circle cx="969.4082986020846" cy="291.2154249215012" r="55.21506904431497" fill="#bae7e4" transform="matrix(1,0,0,1,-6.911351203918457,0)" style="transform:matrix(1, 0, 0, 1, -6.91135, 0);animation-play-state:paused" ></circle>
<circle cx="1024.6233676463996" cy="289.14725651181834" r="49.73660501939169" fill="#bae7e4" transform="matrix(1,0,0,1,-7.57051944732666,0)" style="transform:matrix(1, 0, 0, 1, -7.57052, 0);animation-play-state:paused" ></circle>
<circle cx="1074.3599726657912" cy="292.54302136080423" r="38.477185695742236" fill="#bae7e4" transform="matrix(1,0,0,1,-8.1453218460083,0)" style="transform:matrix(1, 0, 0, 1, -8.14532, 0);animation-play-state:paused" ></circle>
<circle cx="1112.8371583615335" cy="288.77732753124997" r="40.01919660079417" fill="#bae7e4" transform="matrix(1,0,0,1,-8.632266998291016,0)" style="transform:matrix(1, 0, 0, 1, -8.63227, 0);animation-play-state:paused" ></circle>
<circle cx="1152.8563549623277" cy="256.67642555228576" r="75.49648046369724" fill="#bae7e4" transform="matrix(1,0,0,1,-9.033674240112305,0)" style="transform:matrix(1, 0, 0, 1, -9.03367, 0);animation-play-state:paused" ></circle>
<circle cx="1228.352835426025" cy="269.58012955954825" r="51.57787967438914" fill="#bae7e4" transform="matrix(1,0,0,1,-9.355050086975098,0)" style="transform:matrix(1, 0, 0, 1, -9.35505, 0);animation-play-state:paused" ></circle>
<circle cx="1279.930715100414" cy="251.15151883101305" r="64.69275728063741" fill="#bae7e4" transform="matrix(1,0,0,1,-9.60324478149414,0)" style="transform:matrix(1, 0, 0, 1, -9.60324, 0);animation-play-state:paused" ></circle>
<circle cx="1344.6234723810514" cy="218.8382818021728" r="86.16488630474414" fill="#bae7e4" transform="matrix(1,0,0,1,-9.785362243652344,0)" style="transform:matrix(1, 0, 0, 1, -9.78536, 0);animation-play-state:paused" ></circle>
<circle cx="1430.7883586857956" cy="276.3915227441384" r="32.430733495345976" fill="#bae7e4" transform="matrix(1,0,0,1,-9.908178329467773,0)" style="transform:matrix(1, 0, 0, 1, -9.90818, 0);animation-play-state:paused" ></circle>
<circle cx="0" cy="339.94054882403464" r="34.21620931330445" fill="#c6eaf0" transform="matrix(1,0,0,1,0,0)" style="transform:matrix(1, 0, 0, 1, 0, 0);animation-play-state:paused" ></circle>
<circle cx="34.21620931330445" cy="297.76689299670034" r="73.01894829899537" fill="#c6eaf0" transform="matrix(1,0,0,1,-0.05069185048341751,0)" style="transform:matrix(1, 0, 0, 1, -0.0506919, 0);animation-play-state:paused" ></circle>
<circle cx="107.23515761229982" cy="316.5551981248532" r="63.70627444906083" fill="#c6eaf0" transform="matrix(1,0,0,1,-0.21463724970817566,0)" style="transform:matrix(1, 0, 0, 1, -0.214637, 0);animation-play-state:paused" ></circle>
<circle cx="170.94143206136064" cy="326.4907717607587" r="60.58845156013334" fill="#c6eaf0" transform="matrix(1,0,0,1,-0.5121520161628723,0)" style="transform:matrix(1, 0, 0, 1, -0.512152, 0);animation-play-state:paused" ></circle>
<circle cx="231.52988362149398" cy="325.278402757852" r="70.24800670763909" fill="#c6eaf0" transform="matrix(1,0,0,1,-0.9663259983062744,0)" style="transform:matrix(1, 0, 0, 1, -0.966326, 0);animation-play-state:paused" ></circle>
<circle cx="301.7778903291331" cy="343.51028497000016" r="55.97234681989092" fill="#c6eaf0" transform="matrix(1,0,0,1,-1.6002674102783203,0)" style="transform:matrix(1, 0, 0, 1, -1.60027, 0);animation-play-state:paused" ></circle>
<circle cx="357.750237149024" cy="343.85381729157916" r="65.00348780032763" fill="#c6eaf0" transform="matrix(1,0,0,1,-2.429480791091919,0)" style="transform:matrix(1, 0, 0, 1, -2.42948, 0);animation-play-state:paused" ></circle>
<circle cx="422.75372494935164" cy="359.09447253309327" r="47.90806726239572" fill="#c6eaf0" transform="matrix(1,0,0,1,-3.4464619159698486,0)" style="transform:matrix(1, 0, 0, 1, -3.44646, 0);animation-play-state:paused" ></circle>
<circle cx="470.66179221174735" cy="358.025270285017" r="61.583124703042394" fill="#c6eaf0" transform="matrix(1,0,0,1,-4.600757122039795,0)" style="transform:matrix(1, 0, 0, 1, -4.60076, 0);animation-play-state:paused" ></circle>
<circle cx="532.2449169147898" cy="370.12492645720585" r="41.05818013849941" fill="#c6eaf0" transform="matrix(1,0,0,1,-5.794002532958984,0)" style="transform:matrix(1, 0, 0, 1, -5.794, 0);animation-play-state:paused" ></circle>
<circle cx="573.3030970532892" cy="365.3406325971129" r="81.2492395627578" fill="#c6eaf0" transform="matrix(1,0,0,1,-6.911351680755615,0)" style="transform:matrix(1, 0, 0, 1, -6.91135, 0);animation-play-state:paused" ></circle>
<circle cx="654.552336616047" cy="376.61161982836234" r="87.8005226877803" fill="#c6eaf0" transform="matrix(1,0,0,1,-7.868857383728027,0)" style="transform:matrix(1, 0, 0, 1, -7.86886, 0);animation-play-state:paused" ></circle>
<circle cx="742.3528593038272" cy="375.7102530033281" r="50.72624471541859" fill="#c6eaf0" transform="matrix(1,0,0,1,-8.632266998291016,0)" style="transform:matrix(1, 0, 0, 1, -8.63227, 0);animation-play-state:paused" ></circle>
<circle cx="793.0791040192458" cy="374.9861812509607" r="31.09459512615357" fill="#c6eaf0" transform="matrix(1,0,0,1,-9.203954696655273,0)" style="transform:matrix(1, 0, 0, 1, -9.20395, 0);animation-play-state:paused" ></circle>
<circle cx="824.1736991453994" cy="366.16241258238097" r="59.82035055384974" fill="#c6eaf0" transform="matrix(1,0,0,1,-9.603245735168457,0)" style="transform:matrix(1, 0, 0, 1, -9.60325, 0);animation-play-state:paused" ></circle>
<circle cx="883.9940496992491" cy="350.5287389744151" r="86.28726120506073" fill="#c6eaf0" transform="matrix(1,0,0,1,-9.853781700134277,0)" style="transform:matrix(1, 0, 0, 1, -9.85378, 0);animation-play-state:paused" ></circle>
<circle cx="970.2813109043099" cy="341.7559018387452" r="77.75108121885745" fill="#c6eaf0" transform="matrix(1,0,0,1,-9.977882385253906,0)" style="transform:matrix(1, 0, 0, 1, -9.97788, 0);animation-play-state:paused" ></circle>
<circle cx="1048.0323921231673" cy="343.0597742430187" r="59.15724821318219" fill="#c6eaf0" transform="matrix(1,0,0,1,-9.994569778442383,0)" style="transform:matrix(1, 0, 0, 1, -9.99457, 0);animation-play-state:paused" ></circle>
<circle cx="1107.1896403363494" cy="351.89584471400667" r="39.05120133802186" fill="#c6eaf0" transform="matrix(1,0,0,1,-9.908178329467773,0)" style="transform:matrix(1, 0, 0, 1, -9.90818, 0);animation-play-state:paused" ></circle>
<circle cx="1146.2408416743713" cy="340.7896864829256" r="49.40490572336556" fill="#c6eaf0" transform="matrix(1,0,0,1,-9.702127456665039,0)" style="transform:matrix(1, 0, 0, 1, -9.70213, 0);animation-play-state:paused" ></circle>
<circle cx="1195.6457473977368" cy="311.4054844094411" r="77.2675451967177" fill="#c6eaf0" transform="matrix(1,0,0,1,-9.355048179626465,0)" style="transform:matrix(1, 0, 0, 1, -9.35505, 0);animation-play-state:paused" ></circle>
<circle cx="1272.9132925944546" cy="314.41267160836884" r="64.24552255166404" fill="#c6eaf0" transform="matrix(1,0,0,1,-8.843366622924805,0)" style="transform:matrix(1, 0, 0, 1, -8.84337, 0);animation-play-state:paused" ></circle>
<circle cx="1337.1588151461185" cy="300.3841535263821" r="70.14176306353352" fill="#c6eaf0" transform="matrix(1,0,0,1,-8.145318984985352,0)" style="transform:matrix(1, 0, 0, 1, -8.14532, 0);animation-play-state:paused" ></circle>
<circle cx="1407.300578209652" cy="312.4190414673639" r="53.89198454226115" fill="#c6eaf0" transform="matrix(1,0,0,1,-7.250951766967773,0)" style="transform:matrix(1, 0, 0, 1, -7.25095, 0);animation-play-state:paused" ></circle>
<circle cx="0" cy="384.71138262592694" r="48.57384781172757" fill="#d4edf8" transform="matrix(1,0,0,1,0,0)" style="transform:matrix(1, 0, 0, 1, 0, 0);animation-play-state:paused" ></circle>
<circle cx="48.57384781172757" cy="346.72024353575625" r="86.3760547468255" fill="#d4edf8" transform="matrix(1,0,0,1,-0.09182170033454895,0)" style="transform:matrix(1, 0, 0, 1, -0.0918217, 0);animation-play-state:paused" ></circle>
<circle cx="134.94990255855308" cy="405.72290241257616" r="38.71339769100004" fill="#d4edf8" transform="matrix(1,0,0,1,-0.3967548906803131,0)" style="transform:matrix(1, 0, 0, 1, -0.396755, 0);animation-play-state:paused" ></circle>
<circle cx="173.66330024955312" cy="401.00786474059777" r="46.924801734334096" fill="#d4edf8" transform="matrix(1,0,0,1,-0.9663257002830505,0)" style="transform:matrix(1, 0, 0, 1, -0.966326, 0);animation-play-state:paused" ></circle>
<circle cx="220.5881019838872" cy="372.5778619863478" r="86.6801518834918" fill="#d4edf8" transform="matrix(1,0,0,1,-1.8546782732009888,0)" style="transform:matrix(1, 0, 0, 1, -1.85468, 0);animation-play-state:paused" ></circle>
<circle cx="307.26825386737903" cy="406.25573462807216" r="55.66101681882841" fill="#d4edf8" transform="matrix(1,0,0,1,-3.0886495113372803,0)" style="transform:matrix(1, 0, 0, 1, -3.08865, 0);animation-play-state:paused" ></circle>
<circle cx="362.9292706862074" cy="419.30191576592813" r="42.14118435262787" fill="#d4edf8" transform="matrix(1,0,0,1,-4.60075569152832,0)" style="transform:matrix(1, 0, 0, 1, -4.60076, 0);animation-play-state:paused" ></circle>
<circle cx="405.0704550388353" cy="424.50390276627706" r="37.87780824212704" fill="#d4edf8" transform="matrix(1,0,0,1,-6.180027961730957,0)" style="transform:matrix(1, 0, 0, 1, -6.18003, 0);animation-play-state:paused" ></circle>
<circle cx="442.94826328096235" cy="412.2065002149844" r="73.01190096429782" fill="#d4edf8" transform="matrix(1,0,0,1,-7.57051944732666,0)" style="transform:matrix(1, 0, 0, 1, -7.57052, 0);animation-play-state:paused" ></circle>
<circle cx="515.9601642452602" cy="420.9271735285621" r="75.21030543340669" fill="#d4edf8" transform="matrix(1,0,0,1,-8.632266998291016,0)" style="transform:matrix(1, 0, 0, 1, -8.63227, 0);animation-play-state:paused" ></circle>
<circle cx="591.1704696786669" cy="429.43474119137096" r="84.07854326991325" fill="#d4edf8" transform="matrix(1,0,0,1,-9.355050086975098,0)" style="transform:matrix(1, 0, 0, 1, -9.35505, 0);animation-play-state:paused" ></circle>
<circle cx="675.2490129485801" cy="442.236130486577" r="56.0920901865806" fill="#d4edf8" transform="matrix(1,0,0,1,-9.785362243652344,0)" style="transform:matrix(1, 0, 0, 1, -9.78536, 0);animation-play-state:paused" ></circle>
<circle cx="731.3411031351607" cy="437.33258426862477" r="66.72797911586913" fill="#d4edf8" transform="matrix(1,0,0,1,-9.977882385253906,0)" style="transform:matrix(1, 0, 0, 1, -9.97788, 0);animation-play-state:paused" ></circle>
<circle cx="798.0690822510298" cy="429.9619117427956" r="64.49034864873451" fill="#d4edf8" transform="matrix(1,0,0,1,-9.977882385253906,0)" style="transform:matrix(1, 0, 0, 1, -9.97788, 0);animation-play-state:paused" ></circle>
<circle cx="862.5594308997644" cy="424.0011321472008" r="60.222524832208045" fill="#d4edf8" transform="matrix(1,0,0,1,-9.78536319732666,0)" style="transform:matrix(1, 0, 0, 1, -9.78536, 0);animation-play-state:paused" ></circle>
<circle cx="922.7819557319724" cy="425.02475878418846" r="42.66754808176147" fill="#d4edf8" transform="matrix(1,0,0,1,-9.355049133300781,0)" style="transform:matrix(1, 0, 0, 1, -9.35505, 0);animation-play-state:paused" ></circle>
<circle cx="965.4495038137338" cy="417.0360973578532" r="52.3201057921986" fill="#d4edf8" transform="matrix(1,0,0,1,-8.632266998291016,0)" style="transform:matrix(1, 0, 0, 1, -8.63227, 0);animation-play-state:paused" ></circle>
<circle cx="1017.7696096059324" cy="389.3631654019021" r="91.19196451161295" fill="#d4edf8" transform="matrix(1,0,0,1,-7.57051944732666,0)" style="transform:matrix(1, 0, 0, 1, -7.57052, 0);animation-play-state:paused" ></circle>
<circle cx="1108.9615741175453" cy="391.33423183780735" r="69.03541265798124" fill="#d4edf8" transform="matrix(1,0,0,1,-6.180026531219482,0)" style="transform:matrix(1, 0, 0, 1, -6.18003, 0);animation-play-state:paused" ></circle>
<circle cx="1177.9969867755265" cy="410.2017376033124" r="37.7127097326087" fill="#d4edf8" transform="matrix(1,0,0,1,-4.600756645202637,0)" style="transform:matrix(1, 0, 0, 1, -4.60076, 0);animation-play-state:paused" ></circle>
<circle cx="1215.7096965081353" cy="413.89022603233053" r="31.101955014527324" fill="#d4edf8" transform="matrix(1,0,0,1,-3.088648796081543,0)" style="transform:matrix(1, 0, 0, 1, -3.08865, 0);animation-play-state:paused" ></circle>
<circle cx="1246.8116515226625" cy="364.30568191034166" r="79.44174724260174" fill="#d4edf8" transform="matrix(1,0,0,1,-1.8546791076660156,0)" style="transform:matrix(1, 0, 0, 1, -1.85468, 0);animation-play-state:paused" ></circle>
<circle cx="1326.2533987652641" cy="382.8935563510863" r="53.1836819556769" fill="#d4edf8" transform="matrix(1,0,0,1,-0.9663257598876953,0)" style="transform:matrix(1, 0, 0, 1, -0.966326, 0);animation-play-state:paused" ></circle>
<circle cx="1379.4370807209411" cy="378.1035762763507" r="53.03692493102258" fill="#d4edf8" transform="matrix(1,0,0,1,-0.3967552185058594,0)" style="transform:matrix(1, 0, 0, 1, -0.396755, 0);animation-play-state:paused" ></circle>
<circle cx="0" cy="399.8126666473506" r="87.65611112720782" fill="#e3f1fc" transform="matrix(1,0,0,1,0,0)" style="transform:matrix(1, 0, 0, 1, 0, 0);animation-play-state:paused" ></circle>
<circle cx="87.65611112720782" cy="411.1673649760437" r="89.70682171988588" fill="#e3f1fc" transform="matrix(1,0,0,1,-0.14621886610984802,0)" style="transform:matrix(1, 0, 0, 1, -0.146219, 0);animation-play-state:paused" ></circle>
<circle cx="177.3629328470937" cy="429.01821853845956" r="85.52833660982827" fill="#e3f1fc" transform="matrix(1,0,0,1,-0.6449503302574158,0)" style="transform:matrix(1, 0, 0, 1, -0.64495, 0);animation-play-state:paused" ></circle>
<circle cx="262.891269456922" cy="467.2305722960401" r="51.17032259810699" fill="#e3f1fc" transform="matrix(1,0,0,1,-1.600266933441162,0)" style="transform:matrix(1, 0, 0, 1, -1.60027, 0);animation-play-state:paused" ></circle>
<circle cx="314.061592055029" cy="445.3591717799297" r="92.00877616493601" fill="#e3f1fc" transform="matrix(1,0,0,1,-3.0886495113372803,0)" style="transform:matrix(1, 0, 0, 1, -3.08865, 0);animation-play-state:paused" ></circle>
<circle cx="406.070368219965" cy="479.72467452736635" r="51.947755304136884" fill="#e3f1fc" transform="matrix(1,0,0,1,-5,0)" style="transform:matrix(1, 0, 0, 1, -5, 0);animation-play-state:paused" ></circle>
<circle cx="458.0181235241019" cy="470.06818919246007" r="88.37166188400984" fill="#e3f1fc" transform="matrix(1,0,0,1,-6.911351203918457,0)" style="transform:matrix(1, 0, 0, 1, -6.91135, 0);animation-play-state:paused" ></circle>
<circle cx="546.3897854081117" cy="488.5782412113712" r="68.41887876723148" fill="#e3f1fc" transform="matrix(1,0,0,1,-8.39973258972168,0)" style="transform:matrix(1, 0, 0, 1, -8.39973, 0);animation-play-state:paused" ></circle>
<circle cx="614.8086641753432" cy="493.9334594635294" r="92.36812730682753" fill="#e3f1fc" transform="matrix(1,0,0,1,-9.355050086975098,0)" style="transform:matrix(1, 0, 0, 1, -9.35505, 0);animation-play-state:paused" ></circle>
<circle cx="707.1767914821708" cy="502.37527631284723" r="61.79088044166085" fill="#e3f1fc" transform="matrix(1,0,0,1,-9.853780746459961,0)" style="transform:matrix(1, 0, 0, 1, -9.85378, 0);animation-play-state:paused" ></circle>
<circle cx="768.9676719238316" cy="494.6451698702019" r="68.55628420528295" fill="#e3f1fc" transform="matrix(1,0,0,1,-10,0)" style="transform:matrix(1, 0, 0, 1, -10, 0);animation-play-state:paused" ></circle>
<circle cx="837.5239561291146" cy="491.3716300959353" r="50.19813150470673" fill="#e3f1fc" transform="matrix(1,0,0,1,-9.853780746459961,0)" style="transform:matrix(1, 0, 0, 1, -9.85378, 0);animation-play-state:paused" ></circle>
<circle cx="887.7220876338213" cy="473.5187671259049" r="87.52386508267334" fill="#e3f1fc" transform="matrix(1,0,0,1,-9.355049133300781,0)" style="transform:matrix(1, 0, 0, 1, -9.35505, 0);animation-play-state:paused" ></circle>
<circle cx="975.2459527164946" cy="458.75695397265156" r="90.06112871452484" fill="#e3f1fc" transform="matrix(1,0,0,1,-8.399733543395996,0)" style="transform:matrix(1, 0, 0, 1, -8.39973, 0);animation-play-state:paused" ></circle>
<circle cx="1065.3070814310195" cy="484.11001967063146" r="31.10034066409063" fill="#e3f1fc" transform="matrix(1,0,0,1,-6.911350727081299,0)" style="transform:matrix(1, 0, 0, 1, -6.91135, 0);animation-play-state:paused" ></circle>
<circle cx="1096.4074220951102" cy="462.66909207865143" r="58.2798964674237" fill="#e3f1fc" transform="matrix(1,0,0,1,-5,0)" style="transform:matrix(1, 0, 0, 1, -5, 0);animation-play-state:paused" ></circle>
<circle cx="1154.6873185625338" cy="432.1315575552818" r="87.92750379180201" fill="#e3f1fc" transform="matrix(1,0,0,1,-3.088648796081543,0)" style="transform:matrix(1, 0, 0, 1, -3.08865, 0);animation-play-state:paused" ></circle>
<circle cx="1242.614822354336" cy="441.86970578377753" r="64.20784026692941" fill="#e3f1fc" transform="matrix(1,0,0,1,-1.600266456604004,0)" style="transform:matrix(1, 0, 0, 1, -1.60027, 0);animation-play-state:paused" ></circle>
<circle cx="1306.8226626212654" cy="422.3124473284197" r="75.44291278414266" fill="#e3f1fc" transform="matrix(1,0,0,1,-0.6449508666992188,0)" style="transform:matrix(1, 0, 0, 1, -0.644951, 0);animation-play-state:paused" ></circle>
<circle cx="1382.265575405408" cy="412.2799830826217" r="75.46938504951466" fill="#e3f1fc" transform="matrix(1,0,0,1,-0.14621925354003906,0)" style="transform:matrix(1, 0, 0, 1, -0.146219, 0);animation-play-state:paused" ></circle>
<circle cx="0" cy="513.4771542392132" r="44.602371467322335" fill="#eff4fe" transform="matrix(1,0,0,1,0,0)" style="transform:matrix(1, 0, 0, 1, 0, 0);animation-play-state:paused" ></circle>
<circle cx="44.602371467322335" cy="531.559661692068" r="31.597014648421634" fill="#eff4fe" transform="matrix(1,0,0,1,-0.2146373838186264,0)" style="transform:matrix(1, 0, 0, 1, -0.214637, 0);animation-play-state:paused" ></circle>
<circle cx="76.19938611574398" cy="472.17926204413004" r="88.93992873169744" fill="#eff4fe" transform="matrix(1,0,0,1,-0.9663266539573669,0)" style="transform:matrix(1, 0, 0, 1, -0.966327, 0);animation-play-state:paused" ></circle>
<circle cx="165.13931484744143" cy="482.95896328675246" r="92.36722945129274" fill="#eff4fe" transform="matrix(1,0,0,1,-2.4294822216033936,0)" style="transform:matrix(1, 0, 0, 1, -2.42948, 0);animation-play-state:paused" ></circle>
<circle cx="257.5065442987342" cy="542.6767977268603" r="32.53623710297844" fill="#eff4fe" transform="matrix(1,0,0,1,-4.600759983062744,0)" style="transform:matrix(1, 0, 0, 1, -4.60076, 0);animation-play-state:paused" ></circle>
<circle cx="290.0427814017126" cy="541.3819336553821" r="37.10569175907539" fill="#eff4fe" transform="matrix(1,0,0,1,-6.911355018615723,0)" style="transform:matrix(1, 0, 0, 1, -6.91136, 0);animation-play-state:paused" ></circle>
<circle cx="327.148473160788" cy="520.3044119007388" r="74.6872507828383" fill="#eff4fe" transform="matrix(1,0,0,1,-8.632269859313965,0)" style="transform:matrix(1, 0, 0, 1, -8.63227, 0);animation-play-state:paused" ></circle>
<circle cx="401.8357239436263" cy="527.4161318997217" r="80.13044393979541" fill="#eff4fe" transform="matrix(1,0,0,1,-9.603246688842773,0)" style="transform:matrix(1, 0, 0, 1, -9.60325, 0);animation-play-state:paused" ></circle>
<circle cx="481.9661678834217" cy="553.4342273239813" r="38.40739408623449" fill="#eff4fe" transform="matrix(1,0,0,1,-9.977882385253906,0)" style="transform:matrix(1, 0, 0, 1, -9.97788, 0);animation-play-state:paused" ></circle>
<circle cx="520.3735619696562" cy="547.5491962820066" r="68.07471927837621" fill="#eff4fe" transform="matrix(1,0,0,1,-9.908177375793457,0)" style="transform:matrix(1, 0, 0, 1, -9.90818, 0);animation-play-state:paused" ></circle>
<circle cx="588.4482812480323" cy="558.6602588863415" r="50.202182606280516" fill="#eff4fe" transform="matrix(1,0,0,1,-9.355046272277832,0)" style="transform:matrix(1, 0, 0, 1, -9.35505, 0);animation-play-state:paused" ></circle>
<circle cx="638.6504638543129" cy="562.6294560584861" r="56.09005511444591" fill="#eff4fe" transform="matrix(1,0,0,1,-8.14531421661377,0)" style="transform:matrix(1, 0, 0, 1, -8.14531, 0);animation-play-state:paused" ></circle>
<circle cx="694.7405189687588" cy="566.0034716192981" r="48.310533647795985" fill="#eff4fe" transform="matrix(1,0,0,1,-6.180017471313477,0)" style="transform:matrix(1, 0, 0, 1, -6.18002, 0);animation-play-state:paused" ></circle>
<circle cx="743.0510526165548" cy="561.5334982702352" r="51.811757367931236" fill="#eff4fe" transform="matrix(1,0,0,1,-3.8199596405029297,0)" style="transform:matrix(1, 0, 0, 1, -3.81996, 0);animation-play-state:paused" ></circle>
<circle cx="794.862809984486" cy="557.2140144323618" r="49.79185474022347" fill="#eff4fe" transform="matrix(1,0,0,1,-1.8546695709228516,0)" style="transform:matrix(1, 0, 0, 1, -1.85467, 0);animation-play-state:paused" ></circle>
<circle cx="844.6546647247095" cy="547.0235013846817" r="70.33485329925063" fill="#eff4fe" transform="matrix(1,0,0,1,-0.6449451446533203,0)" style="transform:matrix(1, 0, 0, 1, -0.644945, 0);animation-play-state:paused" ></circle>
<circle cx="914.9895180239602" cy="546.297394110067" r="50.7920930482294" fill="#eff4fe" transform="matrix(1,0,0,1,-0.09181976318359375,0)" style="transform:matrix(1, 0, 0, 1, -0.0918198, 0);animation-play-state:paused" ></circle>
<circle cx="965.7816110721895" cy="532.8533590505574" r="68.72840752751874" fill="#eff4fe" transform="matrix(1,0,0,1,-0.022118574008345604,0)" style="transform:matrix(1, 0, 0, 1, -0.0221186, 0);animation-play-state:paused" ></circle>
<circle cx="1034.5100185997082" cy="519.2268383815216" r="77.35452680078994" fill="#eff4fe" transform="matrix(1,0,0,1,-0.3967595100402832,0)" style="transform:matrix(1, 0, 0, 1, -0.39676, 0);animation-play-state:paused" ></circle>
<circle cx="1111.8645454004982" cy="529.5282602214954" r="49.73053952038682" fill="#eff4fe" transform="matrix(1,0,0,1,-1.367743968963623,0)" style="transform:matrix(1, 0, 0, 1, -1.36774, 0);animation-play-state:paused" ></circle>
<circle cx="1161.595084920885" cy="496.23862573658613" r="84.15258908251737" fill="#eff4fe" transform="matrix(1,0,0,1,-3.0886662006378174,0)" style="transform:matrix(1, 0, 0, 1, -3.08867, 0);animation-play-state:paused" ></circle>
<circle cx="1245.7476740034024" cy="497.04500100369916" r="70.7529420995063" fill="#eff4fe" transform="matrix(1,0,0,1,-5.399263381958008,0)" style="transform:matrix(1, 0, 0, 1, -5.39926, 0);animation-play-state:paused" ></circle>
<circle cx="1316.5006161029087" cy="497.0234184555665" r="62.87024298000603" fill="#eff4fe" transform="matrix(1,0,0,1,-7.570536136627197,0)" style="transform:matrix(1, 0, 0, 1, -7.57054, 0);animation-play-state:paused" ></circle>
<circle cx="1379.3708590829146" cy="472.6262603166268" r="77.13474240894051" fill="#eff4fe" transform="matrix(1,0,0,1,-9.033683776855469,0)" style="transform:matrix(1, 0, 0, 1, -9.03368, 0);animation-play-state:paused" ></circle>
<circle cx="0" cy="557.1367786152462" r="59.88601782062823" fill="#f9f9fe" transform="matrix(1,0,0,1,0,0)" style="transform:matrix(1, 0, 0, 1, 0, 0);animation-play-state:paused" ></circle>
<circle cx="59.88601782062823" cy="565.287370727325" r="58.19658339372442" fill="#f9f9fe" transform="matrix(1,0,0,1,-0.297871857881546,0)" style="transform:matrix(1, 0, 0, 1, -0.297872, 0);animation-play-state:paused" ></circle>
<circle cx="118.08260121435265" cy="559.5253943731337" r="69.99718859363506" fill="#f9f9fe" transform="matrix(1,0,0,1,-1.3677345514297485,0)" style="transform:matrix(1, 0, 0, 1, -1.36773, 0);animation-play-state:paused" ></circle>
<circle cx="188.0797898079877" cy="572.7432794404415" r="64.69618629245227" fill="#f9f9fe" transform="matrix(1,0,0,1,-3.4464633464813232,0)" style="transform:matrix(1, 0, 0, 1, -3.44646, 0);animation-play-state:paused" ></circle>
<circle cx="252.77597610043998" cy="596.8597946243406" r="42.520018742414194" fill="#f9f9fe" transform="matrix(1,0,0,1,-6.1800312995910645,0)" style="transform:matrix(1, 0, 0, 1, -6.18003, 0);animation-play-state:paused" ></circle>
<circle cx="295.29599484285416" cy="598.8694638473595" r="44.232962772532844" fill="#f9f9fe" transform="matrix(1,0,0,1,-8.399735450744629,0)" style="transform:matrix(1, 0, 0, 1, -8.39974, 0);animation-play-state:paused" ></circle>
<circle cx="339.528957615387" cy="590.7944100393795" r="63.31057237008579" fill="#f9f9fe" transform="matrix(1,0,0,1,-9.603246688842773,0)" style="transform:matrix(1, 0, 0, 1, -9.60325, 0);animation-play-state:paused" ></circle>
<circle cx="402.8395299854728" cy="583.8375918118296" r="91.7507645734868" fill="#f9f9fe" transform="matrix(1,0,0,1,-9.9945707321167,0)" style="transform:matrix(1, 0, 0, 1, -9.99457, 0);animation-play-state:paused" ></circle>
<circle cx="494.5902945589596" cy="606.0486956665425" r="69.33356937503488" fill="#f9f9fe" transform="matrix(1,0,0,1,-9.785361289978027,0)" style="transform:matrix(1, 0, 0, 1, -9.78536, 0);animation-play-state:paused" ></circle>
<circle cx="563.9238639339945" cy="618.6700723259704" r="49.37555664281994" fill="#f9f9fe" transform="matrix(1,0,0,1,-8.843363761901855,0)" style="transform:matrix(1, 0, 0, 1, -8.84336, 0);animation-play-state:paused" ></circle>
<circle cx="613.2994205768144" cy="620.76884647815" r="67.21462363187408" fill="#f9f9fe" transform="matrix(1,0,0,1,-6.911342620849609,0)" style="transform:matrix(1, 0, 0, 1, -6.91134, 0);animation-play-state:paused" ></circle>
<circle cx="680.5140442086886" cy="628.8538750157018" r="33.45573180361544" fill="#f9f9fe" transform="matrix(1,0,0,1,-4.205990791320801,0)" style="transform:matrix(1, 0, 0, 1, -4.20599, 0);animation-play-state:paused" ></circle>
<circle cx="713.969776012304" cy="626.1633859427599" r="52.13167079212169" fill="#f9f9fe" transform="matrix(1,0,0,1,-1.8546714782714844,0)" style="transform:matrix(1, 0, 0, 1, -1.85467, 0);animation-play-state:paused" ></circle>
<circle cx="766.1014468044257" cy="619.3956389435868" r="65.78083027611817" fill="#f9f9fe" transform="matrix(1,0,0,1,-0.5121488571166992,0)" style="transform:matrix(1, 0, 0, 1, -0.512149, 0);animation-play-state:paused" ></circle>
<circle cx="831.8822770805439" cy="612.3369579613487" r="63.70165932198146" fill="#f9f9fe" transform="matrix(1,0,0,1,-0.022116661071777344,0)" style="transform:matrix(1, 0, 0, 1, -0.0221167, 0);animation-play-state:paused" ></circle>
<circle cx="895.5839364025253" cy="608.8952996803765" r="53.827798369418105" fill="#f9f9fe" transform="matrix(1,0,0,1,-0.14622078835964203,0)" style="transform:matrix(1, 0, 0, 1, -0.146221, 0);animation-play-state:paused" ></circle>
<circle cx="949.4117347719434" cy="608.1042687809442" r="44.64200383550491" fill="#f9f9fe" transform="matrix(1,0,0,1,-0.9663317203521729,0)" style="transform:matrix(1, 0, 0, 1, -0.966332, 0);animation-play-state:paused" ></circle>
<circle cx="994.0537386074484" cy="579.3856725874817" r="90.78438175574934" fill="#f9f9fe" transform="matrix(1,0,0,1,-2.749058246612549,0)" style="transform:matrix(1, 0, 0, 1, -2.74906, 0);animation-play-state:paused" ></circle>
<circle cx="1084.8381203631977" cy="584.1603740700798" r="63.51119799695914" fill="#f9f9fe" transform="matrix(1,0,0,1,-5.399258613586426,0)" style="transform:matrix(1, 0, 0, 1, -5.39926, 0);animation-play-state:paused" ></circle>
<circle cx="1148.3493183601568" cy="574.213911270549" r="67.00861970042085" fill="#f9f9fe" transform="matrix(1,0,0,1,-7.868867874145508,0)" style="transform:matrix(1, 0, 0, 1, -7.86887, 0);animation-play-state:paused" ></circle>
<circle cx="1215.3579380605777" cy="575.398120750599" r="57.30806428959298" fill="#f9f9fe" transform="matrix(1,0,0,1,-9.355055809020996,0)" style="transform:matrix(1, 0, 0, 1, -9.35506, 0);animation-play-state:paused" ></circle>
<circle cx="1272.6660023501706" cy="561.3732901382505" r="65.27571349922957" fill="#f9f9fe" transform="matrix(1,0,0,1,-9.949310302734375,0)" style="transform:matrix(1, 0, 0, 1, -9.94931, 0);animation-play-state:paused" ></circle>
<circle cx="1337.9417158494002" cy="570.0526040784183" r="51.227295549275595" fill="#f9f9fe" transform="matrix(1,0,0,1,-9.90817642211914,0)" style="transform:matrix(1, 0, 0, 1, -9.90818, 0);animation-play-state:paused" ></circle>
<circle cx="1389.1690113986758" cy="546.077554327029" r="66.83483873365157" fill="#f9f9fe" transform="matrix(1,0,0,1,-9.20394515991211,0)" style="transform:matrix(1, 0, 0, 1, -9.20395, 0);animation-play-state:paused" ></circle>
<circle cx="0" cy="646.6489516261003" r="36.95920697824978" fill="#ffffff" transform="matrix(1,0,0,1,0,0)" style="transform:matrix(1, 0, 0, 1, 0, 0);animation-play-state:paused" ></circle>
<circle cx="36.95920697824978" cy="646.9297315980707" r="38.826228987968754" fill="#ffffff" transform="matrix(1,0,0,1,-0.3967548906803131,0)" style="transform:matrix(1, 0, 0, 1, -0.396755, 0);animation-play-state:paused" ></circle>
<circle cx="75.78543596621853" cy="618.7996175784025" r="67.67632634166046" fill="#ffffff" transform="matrix(1,0,0,1,-1.8546782732009888,0)" style="transform:matrix(1, 0, 0, 1, -1.85468, 0);animation-play-state:paused" ></circle>
<circle cx="143.46176230787898" cy="655.9957774236734" r="36.92645912965807" fill="#ffffff" transform="matrix(1,0,0,1,-4.60075569152832,0)" style="transform:matrix(1, 0, 0, 1, -4.60076, 0);animation-play-state:paused" ></circle>
<circle cx="180.38822143753706" cy="644.4520984613811" r="52.71168541819485" fill="#ffffff" transform="matrix(1,0,0,1,-7.57051944732666,0)" style="transform:matrix(1, 0, 0, 1, -7.57052, 0);animation-play-state:paused" ></circle>
<circle cx="233.0999068557319" cy="662.7685645199405" r="35.71546721651368" fill="#ffffff" transform="matrix(1,0,0,1,-9.355050086975098,0)" style="transform:matrix(1, 0, 0, 1, -9.35505, 0);animation-play-state:paused" ></circle>
<circle cx="268.81537407224556" cy="665.0873370666784" r="35.60881564152531" fill="#ffffff" transform="matrix(1,0,0,1,-9.977882385253906,0)" style="transform:matrix(1, 0, 0, 1, -9.97788, 0);animation-play-state:paused" ></circle>
<circle cx="304.4241897137709" cy="661.1198310260993" r="44.92309258072655" fill="#ffffff" transform="matrix(1,0,0,1,-9.78536319732666,0)" style="transform:matrix(1, 0, 0, 1, -9.78536, 0);animation-play-state:paused" ></circle>
<circle cx="349.34728229449746" cy="662.6594279510502" r="48.34520466506362" fill="#ffffff" transform="matrix(1,0,0,1,-8.632266998291016,0)" style="transform:matrix(1, 0, 0, 1, -8.63227, 0);animation-play-state:paused" ></circle>
<circle cx="397.69248695956105" cy="671.6038669954125" r="38.69380182385751" fill="#ffffff" transform="matrix(1,0,0,1,-6.180026531219482,0)" style="transform:matrix(1, 0, 0, 1, -6.18003, 0);animation-play-state:paused" ></circle>
<circle cx="436.38628878341854" cy="657.6263765608692" r="77.02391693362357" fill="#ffffff" transform="matrix(1,0,0,1,-3.088648796081543,0)" style="transform:matrix(1, 0, 0, 1, -3.08865, 0);animation-play-state:paused" ></circle>
<circle cx="513.4102057170421" cy="664.947240020067" r="87.43664451001258" fill="#ffffff" transform="matrix(1,0,0,1,-0.9663257598876953,0)" style="transform:matrix(1, 0, 0, 1, -0.966326, 0);animation-play-state:paused" ></circle>
<circle cx="600.8468502270547" cy="679.2664744624799" r="81.29124247696001" fill="#ffffff" transform="matrix(1,0,0,1,-0.09182167053222656,0)" style="transform:matrix(1, 0, 0, 1, -0.0918217, 0);animation-play-state:paused" ></circle>
<circle cx="682.1380927040148" cy="690.946591763824" r="35.26851193674353" fill="#ffffff" transform="matrix(1,0,0,1,-0.09182170033454895,0)" style="transform:matrix(1, 0, 0, 1, -0.0918217, 0);animation-play-state:paused" ></circle>
<circle cx="717.4066046407582" cy="685.8043572332501" r="85.94822725514369" fill="#ffffff" transform="matrix(1,0,0,1,-0.9663257002830505,0)" style="transform:matrix(1, 0, 0, 1, -0.966326, 0);animation-play-state:paused" ></circle>
<circle cx="803.354831895902" cy="677.7043486599362" r="62.87609259370354" fill="#ffffff" transform="matrix(1,0,0,1,-3.0886495113372803,0)" style="transform:matrix(1, 0, 0, 1, -3.08865, 0);animation-play-state:paused" ></circle>
<circle cx="866.2309244896055" cy="661.4644672781787" r="91.7456524019061" fill="#ffffff" transform="matrix(1,0,0,1,-6.180027961730957,0)" style="transform:matrix(1, 0, 0, 1, -6.18003, 0);animation-play-state:paused" ></circle>
<circle cx="957.9765768915116" cy="648.5289535130324" r="87.90968391598513" fill="#ffffff" transform="matrix(1,0,0,1,-8.632266998291016,0)" style="transform:matrix(1, 0, 0, 1, -8.63227, 0);animation-play-state:paused" ></circle>
<circle cx="1045.8862608074967" cy="648.3587791082131" r="66.88035392568933" fill="#ffffff" transform="matrix(1,0,0,1,-9.785362243652344,0)" style="transform:matrix(1, 0, 0, 1, -9.78536, 0);animation-play-state:paused" ></circle>
<circle cx="1112.766614733186" cy="626.3285964151917" r="85.64836342597765" fill="#ffffff" transform="matrix(1,0,0,1,-9.977882385253906,0)" style="transform:matrix(1, 0, 0, 1, -9.97788, 0);animation-play-state:paused" ></circle>
<circle cx="1198.4149781591636" cy="656.148806508905" r="38.48576092904325" fill="#ffffff" transform="matrix(1,0,0,1,-9.355049133300781,0)" style="transform:matrix(1, 0, 0, 1, -9.35505, 0);animation-play-state:paused" ></circle>
<circle cx="1236.9007390882068" cy="609.5715664825113" r="83.67266336082074" fill="#ffffff" transform="matrix(1,0,0,1,-7.57051944732666,0)" style="transform:matrix(1, 0, 0, 1, -7.57052, 0);animation-play-state:paused" ></circle>
<circle cx="1320.5734024490275" cy="594.0164904274559" r="86.57792287602963" fill="#ffffff" transform="matrix(1,0,0,1,-4.600756645202637,0)" style="transform:matrix(1, 0, 0, 1, -4.60076, 0);animation-play-state:paused" ></circle>
<circle cx="1407.151325325057" cy="622.3732455148538" r="53.939086663866945" fill="#ffffff" transform="matrix(1,0,0,1,-1.8546791076660156,0)" style="transform:matrix(1, 0, 0, 1, -1.85468, 0);animation-play-state:paused" ></circle></g></svg>