<?xml version="1.0" encoding="utf-8"?><svg xmlns="http://www.w3.org/2000/svg" xmlns:xlink="http://www.w3.org/1999/xlink" width="1366" height="629" preserveAspectRatio="xMidYMid" viewBox="0 0 1366 629" style="z-index:1;margin-right:-2px;display:block;background-color:rgb(241, 242, 243);animation-play-state:paused" ><g transform="translate(683,314.5) scale(1,1) translate(-683,-314.5)" style="transform:matrix(1, 0, 0, 1, 0, 0);animation-play-state:paused" ><defs style="animation-play-state:paused" ><linearGradient id="lg-0.014088958554779651" x1="0" x2="0" y1="0" y2="1" style="animation-play-state:paused" ><stop stop-color="#052150" offset="0" style="animation-play-state:paused" ></stop>

  
<stop stop-color="#850d3e" offset="1" style="animation-play-state:paused" ></stop></linearGradient></defs>


<rect x="0" y="0" width="1366" height="629" fill="url(#lg-0.014088958554779651)" style="animation-play-state:paused" ></rect>
<circle cx="0" cy="204.68102315424446" r="43.59914737146296" fill="#282664" transform="matrix(1,0,0,1,0,0)" style="transform:matrix(1, 0, 0, 1, 0, 0);animation-play-state:paused" ></circle>
<circle cx="43.59914737146296" cy="221.64986822676434" r="31.46714081610529" fill="#282664" transform="matrix(1,0,0,1,-0.005429701879620552,0)" style="transform:matrix(1, 0, 0, 1, -0.0054297, 0);animation-play-state:paused" ></circle>
<circle cx="75.06628818756825" cy="180.3688389899042" r="71.74450376321597" fill="#282664" transform="matrix(1,0,0,1,-0.022117476910352707,0)" style="transform:matrix(1, 0, 0, 1, -0.0221175, 0);animation-play-state:paused" ></circle>
<circle cx="146.81079195078422" cy="226.9818671994843" r="31.864349989040864" fill="#282664" transform="matrix(1,0,0,1,-0.05069184675812721,0)" style="transform:matrix(1, 0, 0, 1, -0.0506918, 0);animation-play-state:paused" ></circle>
<circle cx="178.6751419398251" cy="177.57166788644173" r="89.64055272201716" fill="#282664" transform="matrix(1,0,0,1,-0.09182151407003403,0)" style="transform:matrix(1, 0, 0, 1, -0.0918215, 0);animation-play-state:paused" ></circle>
<circle cx="268.31569466184226" cy="203.70296565190242" r="73.15178074653367" fill="#282664" transform="matrix(1,0,0,1,-0.14621838927268982,0)" style="transform:matrix(1, 0, 0, 1, -0.146218, 0);animation-play-state:paused" ></circle>
<circle cx="341.46747540837595" cy="202.1912423122435" r="91.33923029609599" fill="#282664" transform="matrix(1,0,0,1,-0.21463721990585327,0)" style="transform:matrix(1, 0, 0, 1, -0.214637, 0);animation-play-state:paused" ></circle>
<circle cx="432.80670570447194" cy="223.15939729234373" r="76.98424969918132" fill="#282664" transform="matrix(1,0,0,1,-0.29787129163742065,0)" style="transform:matrix(1, 0, 0, 1, -0.297871, 0);animation-play-state:paused" ></circle>
<circle cx="509.79095540365324" cy="234.46241268721184" r="74.05873911158993" fill="#282664" transform="matrix(1,0,0,1,-0.39675408601760864,0)" style="transform:matrix(1, 0, 0, 1, -0.396754, 0);animation-play-state:paused" ></circle>
<circle cx="583.8496945152432" cy="240.89736565867298" r="92.4362528970152" fill="#282664" transform="matrix(1,0,0,1,-0.5121519565582275,0)" style="transform:matrix(1, 0, 0, 1, -0.512152, 0);animation-play-state:paused" ></circle>
<circle cx="676.2859474122583" cy="256.5734162590338" r="36.162547541436105" fill="#282664" transform="matrix(1,0,0,1,-0.6449497938156128,0)" style="transform:matrix(1, 0, 0, 1, -0.64495, 0);animation-play-state:paused" ></circle>
<circle cx="712.4484949536944" cy="254.79000510995553" r="42.71374231161452" fill="#282664" transform="matrix(1,0,0,1,-0.7960454225540161,0)" style="transform:matrix(1, 0, 0, 1, -0.796045, 0);animation-play-state:paused" ></circle>
<circle cx="755.1622372653089" cy="252.2797014485049" r="37.230505788621485" fill="#282664" transform="matrix(1,0,0,1,-0.9663258790969849,0)" style="transform:matrix(1, 0, 0, 1, -0.966326, 0);animation-play-state:paused" ></circle>
<circle cx="792.3927430539304" cy="250.42985872970306" r="34.184218275799516" fill="#282664" transform="matrix(1,0,0,1,-1.1566318273544312,0)" style="transform:matrix(1, 0, 0, 1, -1.15663, 0);animation-play-state:paused" ></circle>
<circle cx="826.5769613297299" cy="234.01595857108498" r="91.1131571908769" fill="#282664" transform="matrix(1,0,0,1,-1.367732048034668,0)" style="transform:matrix(1, 0, 0, 1, -1.36773, 0);animation-play-state:paused" ></circle>
<circle cx="917.6901185206068" cy="233.53829847175354" r="56.89893778799119" fill="#282664" transform="matrix(1,0,0,1,-1.600266933441162,0)" style="transform:matrix(1, 0, 0, 1, -1.60027, 0);animation-play-state:paused" ></circle>
<circle cx="974.589056308598" cy="228.0503242435276" r="56.50826083799894" fill="#282664" transform="matrix(1,0,0,1,-1.8546773195266724,0)" style="transform:matrix(1, 0, 0, 1, -1.85468, 0);animation-play-state:paused" ></circle>
<circle cx="1031.0973171465969" cy="237.60860454058252" r="31.706466473580164" fill="#282664" transform="matrix(1,0,0,1,-2.1311416625976562,0)" style="transform:matrix(1, 0, 0, 1, -2.13114, 0);animation-play-state:paused" ></circle>
<circle cx="1062.803783620177" cy="201.97174506540057" r="82.46428757258342" fill="#282664" transform="matrix(1,0,0,1,-2.4294803142547607,0)" style="transform:matrix(1, 0, 0, 1, -2.42948, 0);animation-play-state:paused" ></circle>
<circle cx="1145.2680711927603" cy="220.83340277886987" r="44.53005272874003" fill="#282664" transform="matrix(1,0,0,1,-2.7490453720092773,0)" style="transform:matrix(1, 0, 0, 1, -2.74905, 0);animation-play-state:paused" ></circle>
<circle cx="1189.7981239215003" cy="225.14701524549605" r="35.772936600123124" fill="#282664" transform="matrix(1,0,0,1,-3.0886471271514893,0)" style="transform:matrix(1, 0, 0, 1, -3.08865, 0);animation-play-state:paused" ></circle>
<circle cx="1225.5710605216234" cy="193.8518033249047" r="66.24357844117392" fill="#282664" transform="matrix(1,0,0,1,-3.4464612007141113,0)" style="transform:matrix(1, 0, 0, 1, -3.44646, 0);animation-play-state:paused" ></circle>
<circle cx="1291.8146389627973" cy="170.46829554773433" r="80.89648085333044" fill="#282664" transform="matrix(1,0,0,1,-3.8199710845947266,0)" style="transform:matrix(1, 0, 0, 1, -3.81997, 0);animation-play-state:paused" ></circle>
<circle cx="1372.7111198161278" cy="199.62846975800846" r="47.34440505773706" fill="#282664" transform="matrix(1,0,0,1,-4.205996513366699,0)" style="transform:matrix(1, 0, 0, 1, -4.206, 0);animation-play-state:paused" ></circle>
<circle cx="1420.055524873865" cy="175.2042740092176" r="63.16403464680742" fill="#282664" transform="matrix(1,0,0,1,-4.600756645202637,0)" style="transform:matrix(1, 0, 0, 1, -4.60076, 0);animation-play-state:paused" ></circle>
<circle cx="0" cy="259.25847464074457" r="49.784604466046176" fill="#2f316c" transform="matrix(1,0,0,1,0,0)" style="transform:matrix(1, 0, 0, 1, 0, 0);animation-play-state:paused" ></circle>
<circle cx="49.784604466046176" cy="249.8823036705822" r="62.126551415132475" fill="#2f316c" transform="matrix(1,0,0,1,-0.022117480635643005,0)" style="transform:matrix(1, 0, 0, 1, -0.0221175, 0);animation-play-state:paused" ></circle>
<circle cx="111.91115588117864" cy="269.3774653113577" r="49.45551458611438" fill="#2f316c" transform="matrix(1,0,0,1,-0.09182096272706985,0)" style="transform:matrix(1, 0, 0, 1, -0.091821, 0);animation-play-state:paused" ></circle>
<circle cx="161.36667046729303" cy="255.8160375997937" r="68.94154040795921" fill="#2f316c" transform="matrix(1,0,0,1,-0.21463727951049805,0)" style="transform:matrix(1, 0, 0, 1, -0.214637, 0);animation-play-state:paused" ></circle>
<circle cx="230.30821087525226" cy="248.52820220265676" r="88.60376797174044" fill="#2f316c" transform="matrix(1,0,0,1,-0.3967541754245758,0)" style="transform:matrix(1, 0, 0, 1, -0.396754, 0);animation-play-state:paused" ></circle>
<circle cx="318.9119788469927" cy="278.35716236474013" r="63.53559325428612" fill="#2f316c" transform="matrix(1,0,0,1,-0.6449482440948486,0)" style="transform:matrix(1, 0, 0, 1, -0.644948, 0);animation-play-state:paused" ></circle>
<circle cx="382.44757210127887" cy="281.65283802499965" r="70.72562959941904" fill="#2f316c" transform="matrix(1,0,0,1,-0.966326117515564,0)" style="transform:matrix(1, 0, 0, 1, -0.966326, 0);animation-play-state:paused" ></circle>
<circle cx="453.1732017006979" cy="284.3171940219754" r="85.89205965203125" fill="#2f316c" transform="matrix(1,0,0,1,-1.367732286453247,0)" style="transform:matrix(1, 0, 0, 1, -1.36773, 0);animation-play-state:paused" ></circle>
<circle cx="539.0652613527292" cy="303.44967032150663" r="61.491266054719134" fill="#2f316c" transform="matrix(1,0,0,1,-1.8546746969223022,0)" style="transform:matrix(1, 0, 0, 1, -1.85467, 0);animation-play-state:paused" ></circle>
<circle cx="600.5565274074484" cy="311.7881183481788" r="49.78881300218826" fill="#2f316c" transform="matrix(1,0,0,1,-2.429480791091919,0)" style="transform:matrix(1, 0, 0, 1, -2.42948, 0);animation-play-state:paused" ></circle>
<circle cx="650.3453404096366" cy="315.2827571497911" r="64.79108184818628" fill="#2f316c" transform="matrix(1,0,0,1,-3.0886480808258057,0)" style="transform:matrix(1, 0, 0, 1, -3.08865, 0);animation-play-state:paused" ></circle>
<circle cx="715.1364222578229" cy="315.3349779190986" r="64.91103410052389" fill="#2f316c" transform="matrix(1,0,0,1,-3.819967746734619,0)" style="transform:matrix(1, 0, 0, 1, -3.81997, 0);animation-play-state:paused" ></circle>
<circle cx="780.0474563583468" cy="311.56819174426533" r="43.586279238513164" fill="#2f316c" transform="matrix(1,0,0,1,-4.600757598876953,0)" style="transform:matrix(1, 0, 0, 1, -4.60076, 0);animation-play-state:paused" ></circle>
<circle cx="823.63373559686" cy="309.2702396883416" r="39.37785781305741" fill="#2f316c" transform="matrix(1,0,0,1,-5.399241924285889,0)" style="transform:matrix(1, 0, 0, 1, -5.39924, 0);animation-play-state:paused" ></circle>
<circle cx="863.0115934099174" cy="308.0377685272798" r="34.66074950155305" fill="#2f316c" transform="matrix(1,0,0,1,-6.180023193359375,0)" style="transform:matrix(1, 0, 0, 1, -6.18002, 0);animation-play-state:paused" ></circle>
<circle cx="897.6723429114704" cy="286.4525758609184" r="86.29387770490226" fill="#2f316c" transform="matrix(1,0,0,1,-6.911351680755615,0)" style="transform:matrix(1, 0, 0, 1, -6.91135, 0);animation-play-state:paused" ></circle>
<circle cx="983.9662206163727" cy="270.231768304727" r="92.22713371746487" fill="#2f316c" transform="matrix(1,0,0,1,-7.570518970489502,0)" style="transform:matrix(1, 0, 0, 1, -7.57052, 0);animation-play-state:paused" ></circle>
<circle cx="1076.1933543338375" cy="257.47257028160345" r="89.06397245883885" fill="#2f316c" transform="matrix(1,0,0,1,-8.145318984985352,0)" style="transform:matrix(1, 0, 0, 1, -8.14532, 0);animation-play-state:paused" ></circle>
<circle cx="1165.2573267926764" cy="273.04474645372807" r="54.23701626413592" fill="#2f316c" transform="matrix(1,0,0,1,-8.632266998291016,0)" style="transform:matrix(1, 0, 0, 1, -8.63227, 0);animation-play-state:paused" ></circle>
<circle cx="1219.4943430568123" cy="244.3442744770557" r="79.20223389750846" fill="#2f316c" transform="matrix(1,0,0,1,-9.033674240112305,0)" style="transform:matrix(1, 0, 0, 1, -9.03367, 0);animation-play-state:paused" ></circle>
<circle cx="1298.6965769543208" cy="239.78110987882593" r="73.23209729432483" fill="#2f316c" transform="matrix(1,0,0,1,-9.355048179626465,0)" style="transform:matrix(1, 0, 0, 1, -9.35505, 0);animation-play-state:paused" ></circle>
<circle cx="1371.9286742486456" cy="213.65477293820038" r="87.03221970169794" fill="#2f316c" transform="matrix(1,0,0,1,-9.603245735168457,0)" style="transform:matrix(1, 0, 0, 1, -9.60325, 0);animation-play-state:paused" ></circle>
<circle cx="0" cy="338.2252954676787" r="35.645587110267776" fill="#373c73" transform="matrix(1,0,0,1,0,0)" style="transform:matrix(1, 0, 0, 1, 0, 0);animation-play-state:paused" ></circle>
<circle cx="35.645587110267776" cy="276.2271558296746" r="92.11833469615647" fill="#373c73" transform="matrix(1,0,0,1,-0.05069144815206528,0)" style="transform:matrix(1, 0, 0, 1, -0.0506914, 0);animation-play-state:paused" ></circle>
<circle cx="127.76392180642424" cy="296.51176308355616" r="86.60800345454271" fill="#373c73" transform="matrix(1,0,0,1,-0.21463550627231598,0)" style="transform:matrix(1, 0, 0, 1, -0.214636, 0);animation-play-state:paused" ></circle>
<circle cx="214.37192526096695" cy="322.7663617463606" r="70.72697424530925" fill="#373c73" transform="matrix(1,0,0,1,-0.5121521949768066,0)" style="transform:matrix(1, 0, 0, 1, -0.512152, 0);animation-play-state:paused" ></circle>
<circle cx="285.0988995062762" cy="321.9974090506071" r="84.3986306489055" fill="#373c73" transform="matrix(1,0,0,1,-0.9663242101669312,0)" style="transform:matrix(1, 0, 0, 1, -0.966324, 0);animation-play-state:paused" ></circle>
<circle cx="369.4975301551817" cy="334.3578341551647" r="84.67928840611508" fill="#373c73" transform="matrix(1,0,0,1,-1.600261926651001,0)" style="transform:matrix(1, 0, 0, 1, -1.60026, 0);animation-play-state:paused" ></circle>
<circle cx="454.1768185612968" cy="363.7593558417987" r="42.88376686755487" fill="#373c73" transform="matrix(1,0,0,1,-2.4294817447662354,0)" style="transform:matrix(1, 0, 0, 1, -2.42948, 0);animation-play-state:paused" ></circle>
<circle cx="497.06058542885165" cy="365.10287305562684" r="48.661628699726435" fill="#373c73" transform="matrix(1,0,0,1,-3.446458578109741,0)" style="transform:matrix(1, 0, 0, 1, -3.44646, 0);animation-play-state:paused" ></circle>
<circle cx="545.7222141285781" cy="361.9244401871686" r="79.08907274800444" fill="#373c73" transform="matrix(1,0,0,1,-4.600749492645264,0)" style="transform:matrix(1, 0, 0, 1, -4.60075, 0);animation-play-state:paused" ></circle>
<circle cx="624.8112868765826" cy="373.61323115107183" r="72.25288853294182" fill="#373c73" transform="matrix(1,0,0,1,-5.794003486633301,0)" style="transform:matrix(1, 0, 0, 1, -5.794, 0);animation-play-state:paused" ></circle>
<circle cx="697.0641754095244" cy="379.92451581586477" r="43.524041069797036" fill="#373c73" transform="matrix(1,0,0,1,-6.911348819732666,0)" style="transform:matrix(1, 0, 0, 1, -6.91135, 0);animation-play-state:paused" ></circle>
<circle cx="740.5882164793214" cy="373.1633697052796" r="77.4524549539857" fill="#373c73" transform="matrix(1,0,0,1,-7.868852615356445,0)" style="transform:matrix(1, 0, 0, 1, -7.86885, 0);animation-play-state:paused" ></circle>
<circle cx="818.0406714333071" cy="362.11866858314147" r="79.58065041219409" fill="#373c73" transform="matrix(1,0,0,1,-8.632268905639648,0)" style="transform:matrix(1, 0, 0, 1, -8.63227, 0);animation-play-state:paused" ></circle>
<circle cx="897.6213218455013" cy="355.00562070351106" r="68.93599428533088" fill="#373c73" transform="matrix(1,0,0,1,-9.20395278930664,0)" style="transform:matrix(1, 0, 0, 1, -9.20395, 0);animation-play-state:paused" ></circle>
<circle cx="966.5573161308321" cy="338.0363914108384" r="86.23813422391746" fill="#373c73" transform="matrix(1,0,0,1,-9.603243827819824,0)" style="transform:matrix(1, 0, 0, 1, -9.60324, 0);animation-play-state:paused" ></circle>
<circle cx="1052.7954503547496" cy="354.4460038183495" r="40.87029594033864" fill="#373c73" transform="matrix(1,0,0,1,-9.853781700134277,0)" style="transform:matrix(1, 0, 0, 1, -9.85378, 0);animation-play-state:paused" ></circle>
<circle cx="1093.6657462950882" cy="328.5421220810343" r="72.70456760737572" fill="#373c73" transform="matrix(1,0,0,1,-9.977882385253906,0)" style="transform:matrix(1, 0, 0, 1, -9.97788, 0);animation-play-state:paused" ></circle>
<circle cx="1166.370313902464" cy="336.4775940205893" r="52.42496006569936" fill="#373c73" transform="matrix(1,0,0,1,-9.9945707321167,0)" style="transform:matrix(1, 0, 0, 1, -9.99457, 0);animation-play-state:paused" ></circle>
<circle cx="1218.7952739681634" cy="330.75748801073195" r="53.37180909063211" fill="#373c73" transform="matrix(1,0,0,1,-9.908177375793457,0)" style="transform:matrix(1, 0, 0, 1, -9.90818, 0);animation-play-state:paused" ></circle>
<circle cx="1272.1670830587955" cy="317.7214773288198" r="61.13041080530387" fill="#373c73" transform="matrix(1,0,0,1,-9.702127456665039,0)" style="transform:matrix(1, 0, 0, 1, -9.70213, 0);animation-play-state:paused" ></circle>
<circle cx="1333.2974938640994" cy="311.247878280743" r="61.04987791967997" fill="#373c73" transform="matrix(1,0,0,1,-9.355051040649414,0)" style="transform:matrix(1, 0, 0, 1, -9.35505, 0);animation-play-state:paused" ></circle>
<circle cx="1394.3473717837794" cy="268.96147720597816" r="89.64479955415344" fill="#373c73" transform="matrix(1,0,0,1,-8.843363761901855,0)" style="transform:matrix(1, 0, 0, 1, -8.84336, 0);animation-play-state:paused" ></circle>
<circle cx="0" cy="401.2289578379709" r="34.809201801690925" fill="#3f477a" transform="matrix(1,0,0,1,0,0)" style="transform:matrix(1, 0, 0, 1, 0, 0);animation-play-state:paused" ></circle>
<circle cx="34.809201801690925" cy="374.11208035589914" r="60.489454195303885" fill="#3f477a" transform="matrix(1,0,0,1,-0.09182096272706985,0)" style="transform:matrix(1, 0, 0, 1, -0.091821, 0);animation-play-state:paused" ></circle>
<circle cx="95.29865599699481" cy="385.80100514838693" r="55.39507705500495" fill="#3f477a" transform="matrix(1,0,0,1,-0.39675161242485046,0)" style="transform:matrix(1, 0, 0, 1, -0.396752, 0);animation-play-state:paused" ></circle>
<circle cx="150.69373305199974" cy="387.973254393529" r="58.83716070810281" fill="#3f477a" transform="matrix(1,0,0,1,-0.966326117515564,0)" style="transform:matrix(1, 0, 0, 1, -0.966326, 0);animation-play-state:paused" ></circle>
<circle cx="209.53089376010254" cy="409.30816651928046" r="40.50162577322059" fill="#3f477a" transform="matrix(1,0,0,1,-1.8546746969223022,0)" style="transform:matrix(1, 0, 0, 1, -1.85467, 0);animation-play-state:paused" ></circle>
<circle cx="250.03251953332312" cy="413.501299314779" r="38.77814823854232" fill="#3f477a" transform="matrix(1,0,0,1,-3.0886390209198,0)" style="transform:matrix(1, 0, 0, 1, -3.08864, 0);animation-play-state:paused" ></circle>
<circle cx="288.81066777186544" cy="410.766551333263" r="46.54160585502614" fill="#3f477a" transform="matrix(1,0,0,1,-4.600757598876953,0)" style="transform:matrix(1, 0, 0, 1, -4.60076, 0);animation-play-state:paused" ></circle>
<circle cx="335.3522736268916" cy="396.3121201218765" r="76.43710269931684" fill="#3f477a" transform="matrix(1,0,0,1,-6.180023193359375,0)" style="transform:matrix(1, 0, 0, 1, -6.18002, 0);animation-play-state:paused" ></circle>
<circle cx="411.7893763262084" cy="411.7278803962289" r="65.62813739880701" fill="#3f477a" transform="matrix(1,0,0,1,-7.5705108642578125,0)" style="transform:matrix(1, 0, 0, 1, -7.57051, 0);animation-play-state:paused" ></circle>
<circle cx="477.4175137250154" cy="421.11079145549553" r="60.60150399476459" fill="#3f477a" transform="matrix(1,0,0,1,-8.632266998291016,0)" style="transform:matrix(1, 0, 0, 1, -8.63227, 0);animation-play-state:paused" ></circle>
<circle cx="538.01901771978" cy="421.5352268837137" r="84.26645462878588" fill="#3f477a" transform="matrix(1,0,0,1,-9.355048179626465,0)" style="transform:matrix(1, 0, 0, 1, -9.35505, 0);animation-play-state:paused" ></circle>
<circle cx="622.2854723485659" cy="435.1063647633976" r="73.99866604073665" fill="#3f477a" transform="matrix(1,0,0,1,-9.785360336303711,0)" style="transform:matrix(1, 0, 0, 1, -9.78536, 0);animation-play-state:paused" ></circle>
<circle cx="696.2841383893026" cy="441.2510488065183" r="74.9348351985145" fill="#3f477a" transform="matrix(1,0,0,1,-9.977882385253906,0)" style="transform:matrix(1, 0, 0, 1, -9.97788, 0);animation-play-state:paused" ></circle>
<circle cx="771.2189735878171" cy="434.90478232686274" r="52.22831179705452" fill="#3f477a" transform="matrix(1,0,0,1,-9.977882385253906,0)" style="transform:matrix(1, 0, 0, 1, -9.97788, 0);animation-play-state:paused" ></circle>
<circle cx="823.4472853848716" cy="428.6315039140921" r="58.22874397193694" fill="#3f477a" transform="matrix(1,0,0,1,-9.785364151000977,0)" style="transform:matrix(1, 0, 0, 1, -9.78536, 0);animation-play-state:paused" ></circle>
<circle cx="881.6760293568086" cy="414.92155130949203" r="80.43908013505792" fill="#3f477a" transform="matrix(1,0,0,1,-9.355048179626465,0)" style="transform:matrix(1, 0, 0, 1, -9.35505, 0);animation-play-state:paused" ></circle>
<circle cx="962.1151094918665" cy="419.63842306951364" r="47.638520515097" fill="#3f477a" transform="matrix(1,0,0,1,-8.632267951965332,0)" style="transform:matrix(1, 0, 0, 1, -8.63227, 0);animation-play-state:paused" ></circle>
<circle cx="1009.7536300069635" cy="418.81528939851296" r="42.12694168708403" fill="#3f477a" transform="matrix(1,0,0,1,-7.570527076721191,0)" style="transform:matrix(1, 0, 0, 1, -7.57053, 0);animation-play-state:paused" ></circle>
<circle cx="1051.8805716940476" cy="392.6952602109494" r="77.61802399020179" fill="#3f477a" transform="matrix(1,0,0,1,-6.180024147033691,0)" style="transform:matrix(1, 0, 0, 1, -6.18002, 0);animation-play-state:paused" ></circle>
<circle cx="1129.4985956842495" cy="396.82010714859507" r="58.86705117398685" fill="#3f477a" transform="matrix(1,0,0,1,-4.600756645202637,0)" style="transform:matrix(1, 0, 0, 1, -4.60076, 0);animation-play-state:paused" ></circle>
<circle cx="1188.3656468582362" cy="396.9227096135271" r="51.89442127960383" fill="#3f477a" transform="matrix(1,0,0,1,-3.088655471801758,0)" style="transform:matrix(1, 0, 0, 1, -3.08866, 0);animation-play-state:paused" ></circle>
<circle cx="1240.26006813784" cy="357.28467698398106" r="87.54674428101436" fill="#3f477a" transform="matrix(1,0,0,1,-1.8546743392944336,0)" style="transform:matrix(1, 0, 0, 1, -1.85467, 0);animation-play-state:paused" ></circle>
<circle cx="1327.8068124188544" cy="353.11240488771125" r="79.34317984765819" fill="#3f477a" transform="matrix(1,0,0,1,-0.9663257598876953,0)" style="transform:matrix(1, 0, 0, 1, -0.966326, 0);animation-play-state:paused" ></circle>
<circle cx="0" cy="434.1076747746083" r="59.07693768782641" fill="#485281" transform="matrix(1,0,0,1,0,0)" style="transform:matrix(1, 0, 0, 1, 0, 0);animation-play-state:paused" ></circle>
<circle cx="59.07693768782641" cy="441.7182332905987" r="57.728066799278565" fill="#485281" transform="matrix(1,0,0,1,-0.14621774852275848,0)" style="transform:matrix(1, 0, 0, 1, -0.146218, 0);animation-play-state:paused" ></circle>
<circle cx="116.80500448710498" cy="429.67198926985736" r="75.72336935805663" fill="#485281" transform="matrix(1,0,0,1,-0.6449452042579651,0)" style="transform:matrix(1, 0, 0, 1, -0.644945, 0);animation-play-state:paused" ></circle>
<circle cx="192.5283738451616" cy="431.49395504418266" r="85.29992023258245" fill="#485281" transform="matrix(1,0,0,1,-1.6002684831619263,0)" style="transform:matrix(1, 0, 0, 1, -1.60027, 0);animation-play-state:paused" ></circle>
<circle cx="277.8282940777441" cy="478.64436547217133" r="37.02318901549236" fill="#485281" transform="matrix(1,0,0,1,-3.0886454582214355,0)" style="transform:matrix(1, 0, 0, 1, -3.08865, 0);animation-play-state:paused" ></circle>
<circle cx="314.8514830932364" cy="483.218127296549" r="33.67531121555657" fill="#485281" transform="matrix(1,0,0,1,-4.999988555908203,0)" style="transform:matrix(1, 0, 0, 1, -4.99999, 0);animation-play-state:paused" ></circle>
<circle cx="348.526794308793" cy="455.58241345200065" r="84.09296329764487" fill="#485281" transform="matrix(1,0,0,1,-6.911355018615723,0)" style="transform:matrix(1, 0, 0, 1, -6.91136, 0);animation-play-state:paused" ></circle>
<circle cx="432.6197576064379" cy="486.4355046362424" r="42.20098136948836" fill="#485281" transform="matrix(1,0,0,1,-8.399731636047363,0)" style="transform:matrix(1, 0, 0, 1, -8.39973, 0);animation-play-state:paused" ></circle>
<circle cx="474.82073897592625" cy="484.0124730001441" r="57.38035924098749" fill="#485281" transform="matrix(1,0,0,1,-9.355046272277832,0)" style="transform:matrix(1, 0, 0, 1, -9.35505, 0);animation-play-state:paused" ></circle>
<circle cx="532.2010982169137" cy="487.43171421527944" r="66.30872334547927" fill="#485281" transform="matrix(1,0,0,1,-9.853781700134277,0)" style="transform:matrix(1, 0, 0, 1, -9.85378, 0);animation-play-state:paused" ></circle>
<circle cx="598.509821562393" cy="497.8425071259652" r="48.216330420146555" fill="#485281" transform="matrix(1,0,0,1,-10,0)" style="transform:matrix(1, 0, 0, 1, -10, 0);animation-play-state:paused" ></circle>
<circle cx="646.7261519825395" cy="500.4537443351965" r="71.3345102318649" fill="#485281" transform="matrix(1,0,0,1,-9.853781700134277,0)" style="transform:matrix(1, 0, 0, 1, -9.85378, 0);animation-play-state:paused" ></circle>
<circle cx="718.0606622144044" cy="500.58706851375774" r="71.63850725046969" fill="#485281" transform="matrix(1,0,0,1,-9.355046272277832,0)" style="transform:matrix(1, 0, 0, 1, -9.35505, 0);animation-play-state:paused" ></circle>
<circle cx="789.6991694648741" cy="492.60411509988114" r="66.12351834010246" fill="#485281" transform="matrix(1,0,0,1,-8.39973258972168,0)" style="transform:matrix(1, 0, 0, 1, -8.39973, 0);animation-play-state:paused" ></circle>
<circle cx="855.8226878049766" cy="478.28055979330406" r="87.99663349065507" fill="#485281" transform="matrix(1,0,0,1,-6.911355018615723,0)" style="transform:matrix(1, 0, 0, 1, -6.91136, 0);animation-play-state:paused" ></circle>
<circle cx="943.8193212956317" cy="469.89732830077475" r="76.60195779551319" fill="#485281" transform="matrix(1,0,0,1,-4.999988079071045,0)" style="transform:matrix(1, 0, 0, 1, -4.99999, 0);animation-play-state:paused" ></circle>
<circle cx="1020.4212790911448" cy="479.21514517570324" r="43.49423341159416" fill="#485281" transform="matrix(1,0,0,1,-3.0886449813842773,0)" style="transform:matrix(1, 0, 0, 1, -3.08864, 0);animation-play-state:paused" ></circle>
<circle cx="1063.915512502739" cy="467.65291182690316" r="55.804284644445325" fill="#485281" transform="matrix(1,0,0,1,-1.6002674102783203,0)" style="transform:matrix(1, 0, 0, 1, -1.60027, 0);animation-play-state:paused" ></circle>
<circle cx="1119.7197971471842" cy="439.7440640903035" r="85.04653044024496" fill="#485281" transform="matrix(1,0,0,1,-0.6449451446533203,0)" style="transform:matrix(1, 0, 0, 1, -0.644945, 0);animation-play-state:paused" ></circle>
<circle cx="1204.7663275874293" cy="445.8368185135796" r="64.53791480129283" fill="#485281" transform="matrix(1,0,0,1,-0.14621829986572266,0)" style="transform:matrix(1, 0, 0, 1, -0.146218, 0);animation-play-state:paused" ></circle>
<circle cx="1269.304242388722" cy="453.56250942648217" r="49.93398125885774" fill="#485281" transform="matrix(1,0,0,1,0,0)" style="transform:matrix(1, 0, 0, 1, 0, 0);animation-play-state:paused" ></circle>
<circle cx="1319.2382236475798" cy="444.8206117486661" r="53.8353411347752" fill="#485281" transform="matrix(1,0,0,1,-0.14622144401073456,0)" style="transform:matrix(1, 0, 0, 1, -0.146221, 0);animation-play-state:paused" ></circle>
<circle cx="1373.073564782355" cy="451.757141568039" r="43.91424596460549" fill="#485281" transform="matrix(1,0,0,1,-0.644953727722168,0)" style="transform:matrix(1, 0, 0, 1, -0.644954, 0);animation-play-state:paused" ></circle>
<circle cx="0" cy="464.12290603282474" r="85.7309116393127" fill="#515d88" transform="matrix(1,0,0,1,0,0)" style="transform:matrix(1, 0, 0, 1, 0, 0);animation-play-state:paused" ></circle>
<circle cx="85.7309116393127" cy="525.6859992764809" r="39.370113968244326" fill="#515d88" transform="matrix(1,0,0,1,-0.2146356701850891,0)" style="transform:matrix(1, 0, 0, 1, -0.214636, 0);animation-play-state:paused" ></circle>
<circle cx="125.10102560755702" cy="533.0891333305239" r="34.59575269350947" fill="#515d88" transform="matrix(1,0,0,1,-0.9663184881210327,0)" style="transform:matrix(1, 0, 0, 1, -0.966318, 0);animation-play-state:paused" ></circle>
<circle cx="159.6967783010665" cy="500.85941006433484" r="71.937296664891" fill="#515d88" transform="matrix(1,0,0,1,-2.429483652114868,0)" style="transform:matrix(1, 0, 0, 1, -2.42948, 0);animation-play-state:paused" ></circle>
<circle cx="231.6340749659575" cy="498.867603985711" r="85.91408119374857" fill="#515d88" transform="matrix(1,0,0,1,-4.600752830505371,0)" style="transform:matrix(1, 0, 0, 1, -4.60075, 0);animation-play-state:paused" ></circle>
<circle cx="317.5481561597061" cy="518.278423979136" r="75.8805776628133" fill="#515d88" transform="matrix(1,0,0,1,-6.911340236663818,0)" style="transform:matrix(1, 0, 0, 1, -6.91134, 0);animation-play-state:paused" ></circle>
<circle cx="393.42873382251935" cy="530.615324730485" r="71.51588144179436" fill="#515d88" transform="matrix(1,0,0,1,-8.632270812988281,0)" style="transform:matrix(1, 0, 0, 1, -8.63227, 0);animation-play-state:paused" ></circle>
<circle cx="464.9446152643137" cy="540.9258312764674" r="68.05861600925888" fill="#515d88" transform="matrix(1,0,0,1,-9.60324478149414,0)" style="transform:matrix(1, 0, 0, 1, -9.60324, 0);animation-play-state:paused" ></circle>
<circle cx="533.0032312735726" cy="546.2334896364487" r="78.7990673551011" fill="#515d88" transform="matrix(1,0,0,1,-9.977882385253906,0)" style="transform:matrix(1, 0, 0, 1, -9.97788, 0);animation-play-state:paused" ></circle>
<circle cx="611.8022986286737" cy="555.8002831586714" r="89.53246213587444" fill="#515d88" transform="matrix(1,0,0,1,-9.90817642211914,0)" style="transform:matrix(1, 0, 0, 1, -9.90818, 0);animation-play-state:paused" ></circle>
<circle cx="701.3347607645482" cy="564.6996363189292" r="71.41027610285435" fill="#515d88" transform="matrix(1,0,0,1,-9.355047225952148,0)" style="transform:matrix(1, 0, 0, 1, -9.35505, 0);animation-play-state:paused" ></circle>
<circle cx="772.7450368674025" cy="557.9210503415785" r="57.57906725865066" fill="#515d88" transform="matrix(1,0,0,1,-8.145322799682617,0)" style="transform:matrix(1, 0, 0, 1, -8.14532, 0);animation-play-state:paused" ></circle>
<circle cx="830.3241041260532" cy="552.425191562173" r="56.30779284267958" fill="#515d88" transform="matrix(1,0,0,1,-6.180010795593262,0)" style="transform:matrix(1, 0, 0, 1, -6.18001, 0);animation-play-state:paused" ></circle>
<circle cx="886.6318969687327" cy="540.8561000046715" r="73.07419238103293" fill="#515d88" transform="matrix(1,0,0,1,-3.8199620246887207,0)" style="transform:matrix(1, 0, 0, 1, -3.81996, 0);animation-play-state:paused" ></circle>
<circle cx="959.7060893497656" cy="534.8491737029183" r="66.1321862380781" fill="#515d88" transform="matrix(1,0,0,1,-1.8546772003173828,0)" style="transform:matrix(1, 0, 0, 1, -1.85468, 0);animation-play-state:paused" ></circle>
<circle cx="1025.8382755878438" cy="514.7346256652355" r="86.76892578927152" fill="#515d88" transform="matrix(1,0,0,1,-0.6449422836303711,0)" style="transform:matrix(1, 0, 0, 1, -0.644942, 0);animation-play-state:paused" ></circle>
<circle cx="1112.6072013771154" cy="504.7648475450609" r="82.45246857762845" fill="#515d88" transform="matrix(1,0,0,1,-0.09181976318359375,0)" style="transform:matrix(1, 0, 0, 1, -0.0918198, 0);animation-play-state:paused" ></circle>
<circle cx="1195.0596699547439" cy="527.6030757267247" r="43.790631016734864" fill="#515d88" transform="matrix(1,0,0,1,-0.022118045017123222,0)" style="transform:matrix(1, 0, 0, 1, -0.022118, 0);animation-play-state:paused" ></circle>
<circle cx="1238.8503009714786" cy="515.4985239428851" r="52.73528395075086" fill="#515d88" transform="matrix(1,0,0,1,-0.39676231145858765,0)" style="transform:matrix(1, 0, 0, 1, -0.396762, 0);animation-play-state:paused" ></circle>
<circle cx="1291.5855849222296" cy="479.86234460898135" r="81.49363062286888" fill="#515d88" transform="matrix(1,0,0,1,-1.3677444458007812,0)" style="transform:matrix(1, 0, 0, 1, -1.36774, 0);animation-play-state:paused" ></circle>
<circle cx="1373.0792155450986" cy="497.608870013268" r="57.232731056222505" fill="#515d88" transform="matrix(1,0,0,1,-3.0886597633361816,0)" style="transform:matrix(1, 0, 0, 1, -3.08866, 0);animation-play-state:paused" ></circle>
<circle cx="0" cy="591.3362779403936" r="31.38643504967195" fill="#5b688f" transform="matrix(1,0,0,1,0,0)" style="transform:matrix(1, 0, 0, 1, 0, 0);animation-play-state:paused" ></circle>
<circle cx="31.38643504967195" cy="579.3123650930444" r="43.40079313219646" fill="#5b688f" transform="matrix(1,0,0,1,-0.2978692054748535,0)" style="transform:matrix(1, 0, 0, 1, -0.297869, 0);animation-play-state:paused" ></circle>
<circle cx="74.78722818186841" cy="546.6238736663637" r="77.08773542862693" fill="#5b688f" transform="matrix(1,0,0,1,-1.367721676826477,0)" style="transform:matrix(1, 0, 0, 1, -1.36772, 0);animation-play-state:paused" ></circle>
<circle cx="151.87496361049534" cy="544.2672804247084" r="90.80166863552347" fill="#5b688f" transform="matrix(1,0,0,1,-3.4464621543884277,0)" style="transform:matrix(1, 0, 0, 1, -3.44646, 0);animation-play-state:paused" ></circle>
<circle cx="242.6766322460188" cy="587.0128710524928" r="54.27300928373262" fill="#5b688f" transform="matrix(1,0,0,1,-6.180018901824951,0)" style="transform:matrix(1, 0, 0, 1, -6.18002, 0);animation-play-state:paused" ></circle>
<circle cx="296.94964152975143" cy="591.9344637216825" r="54.6469321135683" fill="#5b688f" transform="matrix(1,0,0,1,-8.399721145629883,0)" style="transform:matrix(1, 0, 0, 1, -8.39972, 0);animation-play-state:paused" ></circle>
<circle cx="351.59657364331974" cy="608.0190594021815" r="36.03358044566264" fill="#5b688f" transform="matrix(1,0,0,1,-9.603245735168457,0)" style="transform:matrix(1, 0, 0, 1, -9.60325, 0);animation-play-state:paused" ></circle>
<circle cx="387.6301540889824" cy="598.8573626344574" r="58.08373695348847" fill="#5b688f" transform="matrix(1,0,0,1,-9.994569778442383,0)" style="transform:matrix(1, 0, 0, 1, -9.99457, 0);animation-play-state:paused" ></circle>
<circle cx="445.7138910424709" cy="594.3665983772577" r="83.07345863416033" fill="#5b688f" transform="matrix(1,0,0,1,-9.78536605834961,0)" style="transform:matrix(1, 0, 0, 1, -9.78537, 0);animation-play-state:paused" ></circle>
<circle cx="528.7873496766313" cy="608.2721369734938" r="76.50221094820249" fill="#5b688f" transform="matrix(1,0,0,1,-8.843364715576172,0)" style="transform:matrix(1, 0, 0, 1, -8.84336, 0);animation-play-state:paused" ></circle>
<circle cx="605.2895606248337" cy="618.1467378370642" r="79.49144410206138" fill="#5b688f" transform="matrix(1,0,0,1,-6.9113569259643555,0)" style="transform:matrix(1, 0, 0, 1, -6.91136, 0);animation-play-state:paused" ></circle>
<circle cx="684.781004726895" cy="628.7235824736033" r="88.33645398668584" fill="#5b688f" transform="matrix(1,0,0,1,-4.206016540527344,0)" style="transform:matrix(1, 0, 0, 1, -4.20602, 0);animation-play-state:paused" ></circle>
<circle cx="773.1174587135808" cy="617.9772518478782" r="69.61781782139684" fill="#5b688f" transform="matrix(1,0,0,1,-1.8546743392944336,0)" style="transform:matrix(1, 0, 0, 1, -1.85467, 0);animation-play-state:paused" ></circle>
<circle cx="842.7352765349776" cy="605.8610031385299" r="82.44857366099426" fill="#5b688f" transform="matrix(1,0,0,1,-0.5121536254882812,0)" style="transform:matrix(1, 0, 0, 1, -0.512154, 0);animation-play-state:paused" ></circle>
<circle cx="925.1838501959719" cy="599.5569641216133" r="69.19534301683659" fill="#5b688f" transform="matrix(1,0,0,1,-0.022118568420410156,0)" style="transform:matrix(1, 0, 0, 1, -0.0221186, 0);animation-play-state:paused" ></circle>
<circle cx="994.3791932128084" cy="598.0624061255702" r="56.55049394441037" fill="#5b688f" transform="matrix(1,0,0,1,-0.1462198942899704,0)" style="transform:matrix(1, 0, 0, 1, -0.14622, 0);animation-play-state:paused" ></circle>
<circle cx="1050.9296871572187" cy="595.5475993853956" r="51.7489944802317" fill="#5b688f" transform="matrix(1,0,0,1,-0.966323971748352,0)" style="transform:matrix(1, 0, 0, 1, -0.966324, 0);animation-play-state:paused" ></circle>
<circle cx="1102.6786816374504" cy="581.541772833874" r="64.36267111939705" fill="#5b688f" transform="matrix(1,0,0,1,-2.7490341663360596,0)" style="transform:matrix(1, 0, 0, 1, -2.74903, 0);animation-play-state:paused" ></circle>
<circle cx="1167.0413527568473" cy="572.9071334903307" r="65.95756679310936" fill="#5b688f" transform="matrix(1,0,0,1,-5.399251461029053,0)" style="transform:matrix(1, 0, 0, 1, -5.39925, 0);animation-play-state:paused" ></circle>
<circle cx="1232.9989195499568" cy="596.1107835265323" r="34.03542269646543" fill="#5b688f" transform="matrix(1,0,0,1,-7.868854522705078,0)" style="transform:matrix(1, 0, 0, 1, -7.86885, 0);animation-play-state:paused" ></circle>
<circle cx="1267.0343422464223" cy="577.8123608185359" r="49.88456304707724" fill="#5b688f" transform="matrix(1,0,0,1,-9.355045318603516,0)" style="transform:matrix(1, 0, 0, 1, -9.35505, 0);animation-play-state:paused" ></circle>
<circle cx="1316.9189052934996" cy="526.1154075037107" r="92.3753497071667" fill="#5b688f" transform="matrix(1,0,0,1,-9.949309349060059,0)" style="transform:matrix(1, 0, 0, 1, -9.94931, 0);animation-play-state:paused" ></circle>
<circle cx="1409.2942550006662" cy="559.2525242445631" r="54.658202251785326" fill="#5b688f" transform="matrix(1,0,0,1,-9.908178329467773,0)" style="transform:matrix(1, 0, 0, 1, -9.90818, 0);animation-play-state:paused" ></circle>
<circle cx="0" cy="594.2851610738617" r="80.59569910511529" fill="#667395" transform="matrix(1,0,0,1,0,0)" style="transform:matrix(1, 0, 0, 1, 0, 0);animation-play-state:paused" ></circle>
<circle cx="80.59569910511529" cy="601.6684795488775" r="84.40265723186225" fill="#667395" transform="matrix(1,0,0,1,-0.3967520296573639,0)" style="transform:matrix(1, 0, 0, 1, -0.396752, 0);animation-play-state:paused" ></circle>
<circle cx="164.99835633697754" cy="661.4724027612035" r="32.44415206144522" fill="#667395" transform="matrix(1,0,0,1,-1.8546639680862427,0)" style="transform:matrix(1, 0, 0, 1, -1.85466, 0);animation-play-state:paused" ></circle>
<circle cx="197.44250839842277" cy="641.6648111742202" r="57.83031970265762" fill="#667395" transform="matrix(1,0,0,1,-4.600762367248535,0)" style="transform:matrix(1, 0, 0, 1, -4.60076, 0);animation-play-state:paused" ></circle>
<circle cx="255.2728281010804" cy="651.1314816541214" r="53.05211635520099" fill="#667395" transform="matrix(1,0,0,1,-7.5705156326293945,0)" style="transform:matrix(1, 0, 0, 1, -7.57052, 0);animation-play-state:paused" ></circle>
<circle cx="308.3249444562814" cy="644.2419796023946" r="71.02983296023496" fill="#667395" transform="matrix(1,0,0,1,-9.3550443649292,0)" style="transform:matrix(1, 0, 0, 1, -9.35504, 0);animation-play-state:paused" ></circle>
<circle cx="379.35477741651636" cy="661.0284734136023" r="56.18001737999099" fill="#667395" transform="matrix(1,0,0,1,-9.977883338928223,0)" style="transform:matrix(1, 0, 0, 1, -9.97788, 0);animation-play-state:paused" ></circle>
<circle cx="435.53479479650736" cy="658.9828728229191" r="73.63896486634096" fill="#667395" transform="matrix(1,0,0,1,-9.785362243652344,0)" style="transform:matrix(1, 0, 0, 1, -9.78536, 0);animation-play-state:paused" ></circle>
<circle cx="509.1737596628483" cy="668.07396776569" r="75.0676843805952" fill="#667395" transform="matrix(1,0,0,1,-8.632271766662598,0)" style="transform:matrix(1, 0, 0, 1, -8.63227, 0);animation-play-state:paused" ></circle>
<circle cx="584.2414440434435" cy="679.7795352630827" r="64.66593654499569" fill="#667395" transform="matrix(1,0,0,1,-6.180010795593262,0)" style="transform:matrix(1, 0, 0, 1, -6.18001, 0);animation-play-state:paused" ></circle>
<circle cx="648.9073805884392" cy="687.5703785628348" r="57.25656271098765" fill="#667395" transform="matrix(1,0,0,1,-3.0886430740356445,0)" style="transform:matrix(1, 0, 0, 1, -3.08864, 0);animation-play-state:paused" ></circle>
<circle cx="706.1639432994268" cy="689.1036996476839" r="46.5944393221365" fill="#667395" transform="matrix(1,0,0,1,-0.9663276672363281,0)" style="transform:matrix(1, 0, 0, 1, -0.966328, 0);animation-play-state:paused" ></circle>
<circle cx="752.7583826215633" cy="682.3529241021989" r="70.55248674363268" fill="#667395" transform="matrix(1,0,0,1,-0.09181880950927734,0)" style="transform:matrix(1, 0, 0, 1, -0.0918188, 0);animation-play-state:paused" ></circle>
<circle cx="823.310869365196" cy="669.1259282435908" r="88.73149004314494" fill="#667395" transform="matrix(1,0,0,1,-0.09182334691286087,0)" style="transform:matrix(1, 0, 0, 1, -0.0918233, 0);animation-play-state:paused" ></circle>
<circle cx="912.042359408341" cy="674.8926256325797" r="40.026572382239046" fill="#667395" transform="matrix(1,0,0,1,-0.9663271903991699,0)" style="transform:matrix(1, 0, 0, 1, -0.966327, 0);animation-play-state:paused" ></circle>
<circle cx="952.06893179058" cy="673.1562890147873" r="37.745143725182984" fill="#667395" transform="matrix(1,0,0,1,-3.0886759757995605,0)" style="transform:matrix(1, 0, 0, 1, -3.08868, 0);animation-play-state:paused" ></circle>
<circle cx="989.814075515763" cy="655.76961177005" r="65.35541956641111" fill="#667395" transform="matrix(1,0,0,1,-6.180047035217285,0)" style="transform:matrix(1, 0, 0, 1, -6.18005, 0);animation-play-state:paused" ></circle>
<circle cx="1055.169495082174" cy="647.9113934513982" r="65.89631575033896" fill="#667395" transform="matrix(1,0,0,1,-8.632270812988281,0)" style="transform:matrix(1, 0, 0, 1, -8.63227, 0);animation-play-state:paused" ></circle>
<circle cx="1121.065810832513" cy="666.6378674994762" r="31.6530379804423" fill="#667395" transform="matrix(1,0,0,1,-9.785369873046875,0)" style="transform:matrix(1, 0, 0, 1, -9.78537, 0);animation-play-state:paused" ></circle>
<circle cx="1152.7188488129555" cy="634.7647497111799" r="68.14125095669495" fill="#667395" transform="matrix(1,0,0,1,-9.977880477905273,0)" style="transform:matrix(1, 0, 0, 1, -9.97788, 0);animation-play-state:paused" ></circle>
<circle cx="1220.8600997696503" cy="638.5315164798659" r="55.522452554110714" fill="#667395" transform="matrix(1,0,0,1,-9.3550443649292,0)" style="transform:matrix(1, 0, 0, 1, -9.35504, 0);animation-play-state:paused" ></circle>
<circle cx="1276.382552323761" cy="645.4642849415973" r="43.67740684753594" fill="#667395" transform="matrix(1,0,0,1,-7.570486068725586,0)" style="transform:matrix(1, 0, 0, 1, -7.57049, 0);animation-play-state:paused" ></circle>
<circle cx="1320.059959171297" cy="637.3178967167868" r="47.96104879218534" fill="#667395" transform="matrix(1,0,0,1,-4.6007232666015625,0)" style="transform:matrix(1, 0, 0, 1, -4.60072, 0);animation-play-state:paused" ></circle>
<circle cx="1368.0210079634821" cy="615.5319387633652" r="62.70450738664227" fill="#667395" transform="matrix(1,0,0,1,-1.8546648025512695,0)" style="transform:matrix(1, 0, 0, 1, -1.85466, 0);animation-play-state:paused" ></circle></g></svg>